<svg width="100" height="100" viewBox="0 0 100 100" fill="none" xmlns="http://www.w3.org/2000/svg">
<path d="M48.2179 0C47.4833 0 46.9271 0.00541667 46.7246 0.0279167C46.5096 0.05 45.825 0.115417 45.2096 0.164583C31.0063 1.445 17.7025 9.1075 9.27625 20.8846C4.58417 27.4333 1.58333 34.8608 0.45 42.7292C0.0491667 45.475 0 46.2863 0 50.01C0 53.7337 0.05 54.545 0.45 57.2917C3.16667 76.0667 16.5296 91.8412 34.6529 97.6854C37.8983 98.7317 41.3196 99.445 45.21 99.875C46.725 100.042 53.2742 100.042 54.7892 99.875C61.5046 99.1321 67.1942 97.4708 72.8046 94.6071C73.665 94.1671 73.8313 94.05 73.7142 93.9517C73.6359 93.8938 69.9696 88.9775 65.5713 83.035L57.5754 72.235L47.5558 57.4087C42.0429 49.2571 37.5071 42.5921 37.4679 42.5921C37.4288 42.5812 37.39 49.17 37.37 57.2129C37.3421 71.2971 37.3313 71.8637 37.155 72.1963C36.9008 72.6754 36.705 72.8704 36.295 73.0854C35.9825 73.2412 35.7083 73.2708 34.2325 73.2708H32.5408L32.0917 72.9875C31.8131 72.813 31.5868 72.5666 31.4367 72.2742L31.2313 71.8342L31.2533 52.2383L31.2813 32.6325L31.5838 32.2513C31.7404 32.0458 32.0729 31.7825 32.3071 31.6554C32.7079 31.4596 32.8646 31.44 34.5554 31.44C36.55 31.44 36.8821 31.5179 37.4 32.0846C37.5471 32.2417 42.9721 40.4125 49.4625 50.2546C56.0341 60.2164 62.6097 70.1755 69.1892 80.1321L77.1067 92.1246L77.5067 91.8608C81.0559 89.5542 84.8088 86.27 87.7804 82.8496C94.105 75.5875 98.1817 66.7329 99.55 57.2912C99.9504 54.545 99.9992 53.7329 99.9992 50.01C99.9992 46.2863 99.9492 45.475 99.55 42.7283C96.8325 23.9533 83.47 8.17875 65.3471 2.33458C62.1504 1.29833 58.7488 0.584583 54.9367 0.154583C54.2325 0.08125 50.4213 0.00166667 48.2179 0ZM65.17 30.0708C66.6171 30.0708 66.8708 30.0929 67.1938 30.2667C67.6634 30.5008 68.0438 30.9508 68.1813 31.4196C68.2588 31.6737 68.2788 37.1083 68.2588 49.3546L68.2309 66.9275L65.1325 62.1775L62.0238 57.4275V44.6525C62.0238 36.3942 62.0625 31.7512 62.1213 31.5267C62.2775 30.9796 62.6196 30.5492 63.0892 30.2954C63.4896 30.0896 63.635 30.0708 65.17 30.0708Z" fill="black"/>
</svg>
