<svg width="101" height="100" viewBox="0 0 101 100" fill="none" xmlns="http://www.w3.org/2000/svg">
<path d="M69.3084 68.7666C72.9334 68.4541 75.7376 65.2666 75.5584 61.4583C75.3626 57.6499 72.2417 54.5916 68.4376 54.5916H68.1834C66.2955 54.6589 64.5117 55.4732 63.224 56.8554C61.9364 58.2376 61.2503 60.0746 61.3167 61.9624C61.4417 63.9583 62.2584 65.5833 63.3751 66.7666C59.0084 75.2583 52.4542 81.4999 42.5209 86.7458C35.8417 90.2374 28.7876 91.5541 21.9209 90.6208C16.1792 89.8083 11.6876 87.2458 8.93756 83.1249C4.8209 76.8791 4.4459 70.1416 7.87506 63.3999C10.3751 58.5249 14.1209 54.9708 16.6209 53.2208C15.8662 51.1281 15.281 48.9781 14.8709 46.7916C-3.6166 60.0333 -1.73327 78.1333 3.8834 86.6874C8.06673 92.9291 16.6209 96.9208 25.9834 96.9208C28.4834 96.9208 31.1084 96.7374 33.6626 96.1124C49.9001 92.9916 62.1959 83.2541 69.2501 68.8958L69.3084 68.7666ZM91.5917 53.1583C81.9251 41.7916 67.6834 35.5499 51.4501 35.5499H49.3251C48.2709 33.2416 45.8376 31.8041 43.0834 31.8041H42.8959C38.9667 31.8041 35.9042 35.1791 36.0334 39.1083C36.1584 42.8499 39.3417 45.9749 43.1501 45.9749H43.4584C44.8092 45.9227 46.1164 45.4829 47.2239 44.7078C48.3315 43.9328 49.1925 42.8553 49.7042 41.6041H52.0167C61.6376 41.6041 70.7459 44.4124 79.0501 49.9041C85.4126 54.0916 89.9751 59.5833 92.5376 66.1416C94.7792 71.5083 94.6584 76.7541 92.3501 81.1291C88.7876 87.9916 82.7917 91.6166 74.8667 91.6166C69.8709 91.6166 65.0042 90.0541 62.5042 88.9333C61.0042 90.1749 58.5042 92.2374 56.6959 93.4874C62.1876 95.9791 67.7459 97.4166 73.1126 97.4166C85.2876 97.4166 94.3375 90.5541 97.775 83.9333C101.517 76.4416 101.208 63.8333 91.6501 53.0333L91.5917 53.1583ZM27.0417 71.0083C27.1667 74.7541 30.3459 77.8749 34.1584 77.8749H34.4084C35.3466 77.8538 36.2712 77.645 37.1275 77.261C37.9838 76.877 38.7547 76.3255 39.3946 75.639C40.0345 74.9525 40.5305 74.1449 40.8535 73.2637C41.1764 72.3826 41.3198 71.4457 41.2751 70.5083C41.2751 66.7583 38.0292 63.6458 34.2209 63.6458H33.9709C33.7209 63.6458 33.3459 63.6458 33.0292 63.7666C27.8501 55.0249 25.6626 45.6541 26.4792 35.5499C26.9792 27.9333 29.4792 21.3124 33.9667 15.8208C37.7167 11.1374 44.7709 8.82075 49.5792 8.70409C63.0626 8.44992 68.6834 25.2499 69.1167 31.9291L75.3584 33.8041C73.9209 13.3208 61.1917 2.58325 49.0167 2.58325C37.5834 2.58325 27.0417 10.8874 22.7917 23.0624C16.9876 39.2916 20.7959 54.9041 27.9167 67.3916C27.2917 68.2041 26.9167 69.6374 27.0417 71.0083Z" fill="#764ABC"/>
</svg>
