<svg width="30" height="30" viewBox="0 0 28 36" fill="none" xmlns="http://www.w3.org/2000/svg">
<path d="M1.835 23.508L5.3825 0.691526C5.40794 0.522278 5.48615 0.365376 5.60598 0.243175C5.72581 0.120973 5.88115 0.0397051 6.04986 0.0109484C6.21858 -0.0178082 6.39207 0.00741352 6.54561 0.0830204C6.69916 0.158627 6.82493 0.280762 6.905 0.432026L10.7195 7.58853L1.835 23.508ZM27.026 29.046L23.651 8.04603C23.6279 7.89762 23.5639 7.75857 23.4663 7.64441C23.3687 7.53025 23.2413 7.44548 23.0982 7.39958C22.9552 7.35367 22.8023 7.34843 22.6564 7.38445C22.5106 7.42046 22.3777 7.49631 22.2725 7.60353L0.973999 29.0475L12.758 35.688C13.1217 35.8924 13.5318 35.9997 13.949 35.9997C14.3662 35.9997 14.7763 35.8924 15.14 35.688L27.026 29.046ZM17.45 10.7205L14.72 5.49753C14.6511 5.36618 14.5476 5.25618 14.4207 5.17943C14.2938 5.10268 14.1483 5.06211 14 5.06211C13.8517 5.06211 13.7062 5.10268 13.5793 5.17943C13.4524 5.25618 13.3489 5.36618 13.28 5.49753L1.295 26.976L17.45 10.7205Z" fill="#FFCA28"/>
</svg>
