<svg width="30" height="30" viewBox="0 0 35 35" fill="none" xmlns="http://www.w3.org/2000/svg">
<g clip-path="url(#clip0_1_39)">
<path d="M0.0500336 0.5H34.05V34.5H0.0500336V0.5Z" fill="#F7DF1E"/>
<path d="M8.98991 28.9128L11.5917 27.3382C12.0937 28.2281 12.5503 28.9812 13.6457 28.9812C14.6955 28.9812 15.3576 28.5705 15.3576 26.9731V16.1093H18.5527V27.0182C18.5527 30.3275 16.6128 31.8339 13.7826 31.8339C11.2266 31.8339 9.74296 30.5101 8.98978 28.9125M20.2881 28.5704L22.8897 27.0642C23.5746 28.1826 24.4647 29.0042 26.0393 29.0042C27.3633 29.0042 28.2075 28.3422 28.2075 27.4293C28.2075 26.3338 27.3402 25.9458 25.8795 25.3069L25.0809 24.9643C22.7757 23.9832 21.2466 22.7507 21.2466 20.1489C21.2466 17.7524 23.0724 15.9265 25.9254 15.9265C27.9566 15.9265 29.4173 16.6341 30.467 18.4828L27.9792 20.0805C27.4313 19.0991 26.8382 18.7112 25.9252 18.7112C24.9894 18.7112 24.396 19.3046 24.396 20.0805C24.396 21.039 24.9894 21.4272 26.3587 22.0206L27.1575 22.3629C29.8735 23.527 31.4025 24.7137 31.4025 27.3837C31.4025 30.2596 29.1431 31.8343 26.1077 31.8343C23.1408 31.8343 21.2237 30.4193 20.288 28.5705" fill="black"/>
</g>
<defs>
<clipPath id="clip0_1_39">
<rect width="34" height="34" fill="white" transform="translate(0.0500336 0.5)"/>
</clipPath>
</defs>
</svg>
