<svg width="30" height="30" viewBox="0 0 27 28" fill="none" xmlns="http://www.w3.org/2000/svg">
<path d="M24.375 0.930054H1.81641C0.820312 0.930054 0 1.80896 0 2.86365V25.3051C0 26.3597 0.820312 27.1801 1.81641 27.1801H24.375C25.3711 27.1801 26.25 26.3597 26.25 25.3051V2.86365C26.25 1.80896 25.3711 0.930054 24.375 0.930054ZM7.91016 23.4301H4.04297V10.9496H7.91016V23.4301ZM5.97656 9.19177C4.6875 9.19177 3.69141 8.19568 3.69141 6.96521C3.69141 5.73474 4.6875 4.68005 5.97656 4.68005C7.20703 4.68005 8.20312 5.73474 8.20312 6.96521C8.20312 8.19568 7.20703 9.19177 5.97656 9.19177ZM22.5 23.4301H18.5742V17.3363C18.5742 15.9301 18.5742 14.0551 16.582 14.0551C14.5312 14.0551 14.2383 15.6371 14.2383 17.2777V23.4301H10.3711V10.9496H14.0625V12.6488H14.1211C14.6484 11.6527 15.9375 10.598 17.8125 10.598C21.7383 10.598 22.5 13.2347 22.5 16.5746V23.4301Z" fill="#2D2E32"/>
</svg>
