<svg width="30" height="30" viewBox="0 0 31 31" fill="none" xmlns="http://www.w3.org/2000/svg">
<path d="M10.5025 12.9062H19.8775C20.3463 12.9062 20.815 12.4961 20.815 11.9688V11.0312C20.815 10.5625 20.3463 10.0938 19.8775 10.0938H10.5025C9.97516 10.0938 9.565 10.5625 9.565 11.0312V11.9688C9.565 12.4961 9.97516 12.9062 10.5025 12.9062ZM9.565 17.5938C9.565 18.1211 9.97516 18.5312 10.5025 18.5312H19.8775C20.3463 18.5312 20.815 18.1211 20.815 17.5938V16.6562C20.815 16.1875 20.3463 15.7188 19.8775 15.7188H10.5025C9.97516 15.7188 9.565 16.1875 9.565 16.6562V17.5938ZM15.19 24.7422C14.1939 24.7422 13.2564 24.4492 12.4361 23.8047L0.190002 14.957V27.4375C0.190002 29.0195 1.42047 30.25 3.0025 30.25H27.3775C28.9009 30.25 30.19 29.0195 30.19 27.4375V14.957L17.8853 23.8047C17.065 24.4492 16.1275 24.7422 15.19 24.7422ZM29.0767 9.80078C28.5494 9.44922 28.0806 9.03906 27.3775 8.51172V5.875C27.3775 4.35156 26.0884 3.0625 24.565 3.0625H19.9947C19.8189 2.94531 19.6431 2.82812 19.4673 2.71094C18.4713 2.00781 16.5377 0.25 15.19 0.25C13.7838 0.25 11.8502 2.00781 10.8541 2.71094C10.6783 2.82812 10.5025 2.94531 10.3267 3.0625H5.815C4.23297 3.0625 3.0025 4.35156 3.0025 5.875V8.51172C2.24078 9.03906 1.77203 9.44922 1.24469 9.80078C0.600159 10.3281 0.190002 11.1484 0.190002 12.0273V12.6719L5.815 16.7148V5.875H24.565V16.7148L30.19 12.6719V12.0273C30.19 11.1484 29.7798 10.3867 29.0767 9.80078Z" fill="#FB1414"/>
</svg>
