<svg width="30" height="30" viewBox="0 0 34 31" fill="none" xmlns="http://www.w3.org/2000/svg">
<path d="M16.875 0.25C20.918 0.25 24.2578 3.58984 24.2578 7.63281C24.2578 10.9727 19.3945 16.9492 17.5781 19.1758C17.168 19.5859 16.5234 19.5859 16.1133 19.1758C14.2969 16.9492 9.49219 10.9727 9.49219 7.63281C9.49219 3.58984 12.7734 0.25 16.875 0.25ZM16.875 10.0938C18.2227 10.0938 19.3359 9.03906 19.3359 7.63281C19.3359 6.28516 18.2227 5.17188 16.875 5.17188C15.4688 5.17188 14.4141 6.28516 14.4141 7.63281C14.4141 9.03906 15.4688 10.0938 16.875 10.0938ZM1.17188 12.9062L8.08594 10.1523C8.37891 11.0312 8.84766 11.9102 9.375 12.8477V26.5L1.23047 30.1914C0.644531 30.4844 0 30.0156 0 29.3125V14.6641C0 13.9023 0.46875 13.1992 1.17188 12.9062ZM16.875 21.3438C17.6953 21.3438 18.457 20.9922 18.9844 20.3477C20.1562 19 21.3867 17.4766 22.5 15.8359V30.25L11.25 26.5V15.8359C12.3047 17.4766 13.5352 19 14.707 20.3477C15.2344 20.9922 15.9961 21.3438 16.875 21.3438ZM32.4609 9.74219C33.0469 9.44922 33.75 9.91797 33.75 10.6211V25.2695C33.75 26.0312 33.2227 26.7344 32.5195 27.0273L24.375 30.25V13.375L32.4609 9.74219Z" fill="#FB1414"/>
</svg>
