<svg width="30" height="30" viewBox="0 0 36 36" fill="none" xmlns="http://www.w3.org/2000/svg">
<path d="M17.3586 0C17.0941 0 16.8939 0.00195 16.821 0.01005C16.7436 0.018 16.4971 0.04155 16.2756 0.05925C11.1623 0.5202 6.37295 3.2787 3.33948 7.51845C1.65031 9.876 0.570005 12.5499 0.162001 15.3825C0.0177001 16.371 0 16.663 0 18.0036C0 19.3442 0.0180001 19.6362 0.162001 20.625C1.14001 27.384 5.9507 33.0629 12.4752 35.1667C13.6435 35.5434 14.8752 35.8002 16.2757 35.955C16.8211 36.015 19.1789 36.015 19.7243 35.955C22.1418 35.6875 24.1901 35.0895 26.2099 34.0585C26.5196 33.9002 26.5795 33.858 26.5373 33.8226C26.5091 33.8018 25.1893 32.0319 23.6058 29.8926L20.7273 26.0046L17.1202 20.6672C15.1356 17.7325 13.5027 15.3332 13.4886 15.3332C13.4745 15.3293 13.4605 17.7012 13.4533 20.5966C13.4433 25.667 13.4394 25.871 13.3759 25.9907C13.2844 26.1632 13.2139 26.2334 13.0663 26.3108C12.9538 26.3669 12.8551 26.3775 12.3238 26.3775H11.7148L11.5531 26.2755C11.4528 26.2127 11.3714 26.124 11.3173 26.0187L11.2433 25.8603L11.2513 18.8058L11.2613 11.7477L11.3702 11.6105C11.4266 11.5365 11.5463 11.4417 11.6306 11.396C11.7749 11.3254 11.8313 11.3184 12.4401 11.3184C13.1581 11.3184 13.2777 11.3464 13.4641 11.5505C13.5171 11.607 15.4701 14.5485 17.8066 18.0917C20.1724 21.6779 22.5397 25.2632 24.9083 28.8476L27.7586 33.1648L27.9026 33.0699C29.1803 32.2395 30.5314 31.0572 31.6012 29.8258C33.8781 27.2115 35.3457 24.0238 35.8383 20.6248C35.9825 19.6362 36 19.3439 36 18.0036C36 16.663 35.982 16.371 35.8383 15.3822C34.86 8.6232 30.0495 2.94435 23.5251 0.84045C22.3743 0.4674 21.1497 0.21045 19.7774 0.05565C19.5239 0.02925 18.1518 0.0006 17.3586 0ZM23.4614 10.8255C23.9823 10.8255 24.0737 10.8335 24.19 10.896C24.359 10.9803 24.496 11.1423 24.5455 11.3111C24.5734 11.4025 24.5806 13.359 24.5734 17.7677L24.5633 24.0939L23.4479 22.3839L22.3287 20.6739V16.0749C22.3287 13.1019 22.3427 11.4305 22.3638 11.3496C22.4201 11.1526 22.5432 10.9977 22.7123 10.9063C22.8564 10.8322 22.9088 10.8255 23.4614 10.8255Z" fill="black"/>
</svg>
