<svg width="30" height="30" viewBox="0 0 35 31" fill="none" xmlns="http://www.w3.org/2000/svg">
<g clip-path="url(#clip0_26_3)">
<path d="M0.100136 15.4663C0.100136 18.0561 2.59199 20.4737 6.52042 21.8365C5.73593 25.8445 6.37991 29.0751 8.53059 30.3339C10.7412 31.6278 14.0345 30.7322 17.1604 27.959C20.2074 30.6202 23.2868 31.6674 25.4356 30.405C27.6442 29.1075 28.3158 25.6579 27.5096 21.5246C31.6014 20.1517 33.8902 18.0902 33.8902 15.4663C33.8902 12.9365 31.3938 10.7481 27.5183 9.39404C28.3862 5.09003 27.6508 1.93787 25.411 0.62711C23.2517 -0.636611 20.1365 0.464832 17.0447 3.19553C13.8281 0.297163 10.7437 -0.587685 8.50629 0.726715C6.34897 1.99408 5.73341 5.28344 6.52042 9.36561C2.72453 10.7087 0.100136 12.9468 0.100136 15.4663Z" fill="white"/>
<path d="M26.6975 10.7387C26.3781 10.6275 26.056 10.5245 25.7315 10.4297C25.7853 10.2078 25.8351 9.98489 25.8808 9.76109C26.612 6.15862 26.1339 3.25648 24.5012 2.30114C22.9358 1.38489 20.3755 2.34023 17.7898 4.62385C17.535 4.84939 17.2858 5.08142 17.0426 5.31974C16.8797 5.16127 16.7139 5.00589 16.5454 4.85366C13.8354 2.41167 11.1191 1.38273 9.48813 2.3409C7.92419 3.25972 7.46096 5.98812 8.11929 9.40217C8.18478 9.74026 8.25874 10.0766 8.34107 10.4109C7.95673 10.5217 7.58553 10.6397 7.23041 10.7654C4.0534 11.8894 2.02438 13.6513 2.02438 15.4787C2.02438 17.3662 4.20241 19.2594 7.51169 20.4072C7.78003 20.4998 8.0506 20.5856 8.32314 20.6646C8.2346 21.0247 8.15599 21.3873 8.08741 21.7519C7.45977 25.1066 7.94996 27.7703 9.50977 28.6835C11.1209 29.6263 13.8248 28.6572 16.4578 26.3214C16.6659 26.1368 16.8749 25.9409 17.084 25.7357C17.3475 25.9936 17.618 26.2441 17.8952 26.4868C20.4456 28.7141 22.9644 29.6135 24.5229 28.6979C26.1326 27.7523 26.6556 24.8907 25.9764 21.4091C25.9246 21.1432 25.8642 20.8716 25.7964 20.5951C25.9863 20.5382 26.1727 20.4794 26.3545 20.4182C29.7947 19.2615 32.0329 17.3914 32.0329 15.4787C32.0329 13.6447 29.9385 11.871 26.6975 10.7387Z" fill="#53C1DE"/>
<path d="M25.9513 19.1833C25.7873 19.2385 25.6189 19.2917 25.4473 19.3433C25.0674 18.1231 24.5548 16.8256 23.9277 15.4852C24.5263 14.1764 25.019 12.8956 25.3882 11.6832C25.6951 11.7735 25.9931 11.8686 26.2802 11.969C29.0572 12.939 30.7511 14.3735 30.7511 15.4787C30.7511 16.656 28.9215 18.1845 25.9513 19.1833ZM24.7188 21.6619C25.0191 23.2013 25.062 24.5932 24.8631 25.6813C24.6843 26.6591 24.3249 27.3109 23.8806 27.5719C22.9348 28.1275 20.9123 27.4053 18.7314 25.5006C18.4813 25.2823 18.2293 25.0491 17.9768 24.8024C18.8223 23.8638 19.6674 22.7726 20.4921 21.5609C21.9429 21.4303 23.3135 21.2167 24.5564 20.9251C24.6175 21.1758 24.6719 21.4215 24.7188 21.6619ZM12.2549 27.476C11.331 27.8071 10.5951 27.8166 10.1503 27.5563C9.20366 27.0023 8.81028 24.8633 9.34695 21.9945C9.41077 21.6555 9.48384 21.3183 9.56608 20.9834C10.7952 21.2593 12.1558 21.4578 13.6101 21.5775C14.4402 22.7632 15.3097 23.853 16.186 24.8074C15.9998 24.9902 15.8091 25.1684 15.6142 25.3417C14.4499 26.3747 13.2832 27.1073 12.255 27.476H12.2549ZM7.92632 19.1761C6.46305 18.6685 5.25464 18.0088 4.42632 17.2891C3.68207 16.6421 3.30623 15.9999 3.30623 15.4787C3.30623 14.3699 4.93537 12.9553 7.65247 11.9939C7.9935 11.8738 8.33793 11.7638 8.68531 11.6641C9.06089 12.9037 9.55347 14.1998 10.1479 15.5104C9.54577 16.8406 9.04615 18.1572 8.66712 19.4114C8.41832 19.3391 8.17131 19.2607 7.92632 19.1761ZM9.37737 9.15228C8.81334 6.22709 9.18785 4.02057 10.1304 3.46688C11.1344 2.87707 13.3543 3.71811 15.6941 5.82652C15.8436 5.9613 15.9938 6.10242 16.1443 6.24839C15.2725 7.19847 14.411 8.2801 13.588 9.45891C12.1767 9.59167 10.8256 9.8049 9.58362 10.0905C9.50711 9.77952 9.43834 9.46677 9.37737 9.15228ZM22.3217 12.3961C22.0283 11.8818 21.7241 11.374 21.4091 10.873C22.3667 10.9957 23.284 11.1588 24.1454 11.3584C23.8868 12.1996 23.5645 13.0792 23.1849 13.9809C22.9076 13.4468 22.6198 12.9185 22.3217 12.3961ZM17.043 7.17812C17.6342 7.82818 18.2264 8.55411 18.8089 9.34165C17.6273 9.28498 16.4438 9.28471 15.2622 9.34084C15.8452 8.56058 16.4424 7.83572 17.043 7.17812ZM11.7304 12.405C11.4361 12.9232 11.1536 13.4483 10.8834 13.9799C10.5101 13.0813 10.1907 12.1978 9.92984 11.3447C10.786 11.1502 11.6991 10.9913 12.6504 10.8706C12.332 11.3747 12.0252 11.8863 11.7304 12.405ZM12.6778 20.1797C11.695 20.0683 10.7681 19.9175 9.91218 19.7284C10.1771 18.8601 10.5036 17.9576 10.8849 17.0398C11.1562 17.5717 11.4399 18.0972 11.7356 18.6156C12.0374 19.1445 12.3515 19.666 12.6778 20.1797ZM17.0784 23.8712C16.4709 23.2058 15.8649 22.4699 15.2729 21.6783C15.8475 21.7012 16.4333 21.7128 17.0286 21.7128C17.6403 21.7128 18.245 21.6989 18.8401 21.672C18.2558 22.478 17.6657 23.215 17.0784 23.8712ZM23.1971 16.993C23.5982 17.9208 23.9363 18.8185 24.2049 19.6721C23.3347 19.8736 22.3954 20.0358 21.4056 20.1563C21.7227 19.646 22.0299 19.1293 22.3268 18.6066C22.6287 18.0754 22.9189 17.5373 23.1971 16.993ZM21.2163 17.9567C20.7617 18.7581 20.2816 19.5443 19.7767 20.314C18.8863 20.3786 17.9663 20.4119 17.0286 20.4119C16.0949 20.4119 15.1865 20.3824 14.3117 20.3248C13.7937 19.5569 13.3044 18.7693 12.8451 17.9638C12.3879 17.1626 11.9608 16.3441 11.5648 15.51C11.9598 14.6756 12.3856 13.8566 12.8412 13.0548V13.055C13.2967 12.253 13.7821 11.4688 14.2963 10.7042C15.1887 10.6357 16.1038 10.5998 17.0288 10.5998C17.9579 10.5998 18.8741 10.636 19.7663 10.705C20.2753 11.4684 20.7575 12.2499 21.2122 13.0479C21.6694 13.848 22.1009 14.663 22.5059 15.4915C22.105 16.3285 21.6748 17.1508 21.2163 17.9567ZM23.8609 3.4282C24.8657 4.01639 25.2566 6.38816 24.6252 9.49854C24.5838 9.70116 24.5388 9.90301 24.4903 10.104C23.2453 9.81245 21.8934 9.59545 20.4779 9.46066C19.6533 8.26905 18.799 7.18553 17.9413 6.24771C18.166 6.02782 18.3961 5.81363 18.6314 5.60534C20.8468 3.64857 22.9174 2.87599 23.8609 3.4282Z" fill="white"/>
<path d="M17.0286 12.7592C18.5086 12.7592 19.7083 13.9768 19.7083 15.4787C19.7083 16.9807 18.5086 18.1983 17.0286 18.1983C15.5488 18.1983 14.349 16.9807 14.349 15.4787C14.349 13.9768 15.5488 12.7592 17.0286 12.7592Z" fill="#53C1DE"/>
</g>
<defs>
<clipPath id="clip0_26_3">
<rect width="34" height="31" fill="white"/>
</clipPath>
</defs>
</svg>
