<svg width="30" height="30" viewBox="0 0 35 21" fill="none" xmlns="http://www.w3.org/2000/svg">
<g clip-path="url(#clip0_26_10)">
<mask id="mask0_26_10" style="mask-type:luminance" maskUnits="userSpaceOnUse" x="0" y="0" width="35" height="21">
<path d="M0.0564117 0.109985H34.0437V20.5023H0.0564117V0.109985Z" fill="white"/>
</mask>
<g mask="url(#mask0_26_10)">
<path fill-rule="evenodd" clip-rule="evenodd" d="M17.05 0.109985C12.5184 0.109985 9.68614 2.3758 8.55323 6.90744C10.2526 4.64162 12.2352 3.79194 14.501 4.35839C15.7938 4.68127 16.7177 5.6197 17.7405 6.65757C19.4065 8.34875 21.335 10.3062 25.5469 10.3062C30.0785 10.3062 32.9108 8.04035 34.0437 3.50871C32.3443 5.77453 30.3617 6.62421 28.0959 6.05776C26.8031 5.73488 25.8792 4.79645 24.8564 3.75858C23.1904 2.0674 21.262 0.109985 17.05 0.109985ZM8.55323 10.3062C4.02159 10.3062 1.18932 12.572 0.0564117 17.1036C1.75578 14.8378 3.73837 13.9881 6.00418 14.5546C7.29696 14.8781 8.22091 15.8159 9.24368 16.8538C10.9097 18.5449 12.8381 20.5023 17.05 20.5023C21.5817 20.5023 24.414 18.2365 25.5469 13.7049C23.8475 15.9707 21.8649 16.8204 19.5991 16.2539C18.3063 15.9311 17.3824 14.9926 16.3596 13.9548C14.6936 12.2636 12.7651 10.3062 8.55323 10.3062Z" fill="#38BDF8"/>
</g>
</g>
<defs>
<clipPath id="clip0_26_10">
<rect width="33.9873" height="20.77" fill="white" transform="translate(0.0564117 0.109985)"/>
</clipPath>
</defs>
</svg>
