<svg width="24" height="24" viewBox="0 0 24 25" fill="none" xmlns="http://www.w3.org/2000/svg">
<g clip-path="url(#clip0_5_1383)">
<path d="M18.835 0.800049H5.165C3.79516 0.800049 2.48142 1.34422 1.51279 2.31284C0.544168 3.28147 0 4.59521 0 5.96505L0 19.035C0 20.4049 0.544168 21.7186 1.51279 22.6873C2.48142 23.6559 3.79516 24.2001 5.165 24.2001H18.835C20.2048 24.2001 21.5186 23.6559 22.4872 22.6873C23.4558 21.7186 24 20.4049 24 19.035V5.96505C24 4.59521 23.4558 3.28147 22.4872 2.31284C21.5186 1.34422 20.2048 0.800049 18.835 0.800049ZM12.729 17.291H10.442C10.282 17.291 10.168 17.285 10.104 17.178C9.889 16.759 9.674 16.343 9.46 15.93C9.23872 15.5051 9.01069 15.0837 8.776 14.666C8.53217 14.2337 8.29316 13.7987 8.059 13.361H8.043C7.82625 13.7934 7.60357 14.2228 7.375 14.649C7.145 15.078 6.916 15.505 6.691 15.929C6.46621 16.3534 6.23586 16.7748 6 17.1931C5.956 17.2901 5.881 17.3 5.773 17.3H3.568C3.525 17.3 3.501 17.317 3.496 17.274C3.49021 17.2347 3.49873 17.1946 3.52 17.161L6.627 12.056L3.6 6.93805C3.567 6.89505 3.562 6.86005 3.584 6.83105C3.59584 6.81716 3.61081 6.8063 3.62767 6.79934C3.64454 6.79239 3.66282 6.78954 3.681 6.79105H5.951C6.00047 6.78899 6.04983 6.79716 6.096 6.81505C6.13432 6.83707 6.16715 6.8675 6.192 6.90405C6.385 7.33405 6.6 7.76305 6.836 8.19205C7.072 8.62105 7.311 9.04505 7.552 9.46405C7.793 9.88305 8.016 10.307 8.22 10.736H8.236C8.449 10.296 8.666 9.86705 8.888 9.44805C9.11 9.02905 9.335 8.60805 9.564 8.18405C9.795 7.75905 10.017 7.33705 10.232 6.92005C10.2439 6.87984 10.266 6.84335 10.296 6.81405C10.3359 6.79417 10.3806 6.78586 10.425 6.79005H12.534C12.5577 6.78428 12.5828 6.78807 12.6037 6.8006C12.6247 6.81314 12.6399 6.83341 12.646 6.85705C12.6502 6.87405 12.6495 6.89189 12.644 6.90852C12.6386 6.92514 12.6285 6.93989 12.615 6.95105L12.616 6.95505L9.621 11.898L12.825 17.147C12.846 17.184 12.851 17.227 12.841 17.268C12.831 17.304 12.794 17.2801 12.729 17.291ZM20.41 16.871C19.8866 17.0891 19.3416 17.251 18.784 17.354C18.2737 17.4488 17.756 17.4973 17.237 17.4991C16.4962 17.5099 15.7622 17.3562 15.088 17.049C14.4599 16.7582 13.9347 16.2836 13.582 15.688C13.1943 14.9932 13.0048 14.2052 13.034 13.41C13.028 12.6711 13.2171 11.9436 13.582 11.301C13.958 10.6464 14.5108 10.111 15.177 9.75605C16.0189 9.31608 16.9663 9.11808 17.914 9.18405C18 9.18905 18.102 9.19705 18.22 9.20805V6.03605C18.22 5.96105 18.252 5.92305 18.317 5.92305H20.345C20.3675 5.91991 20.3904 5.92583 20.4086 5.93951C20.4268 5.95319 20.4388 5.97352 20.442 5.99605C20.443 6.00402 20.443 6.01208 20.442 6.02005V15.537C20.442 15.72 20.45 15.918 20.466 16.133C20.482 16.347 20.496 16.54 20.506 16.712C20.5081 16.7452 20.5 16.7781 20.4829 16.8066C20.4657 16.835 20.4403 16.8575 20.41 16.871ZM17.953 11.059C18.043 11.068 18.132 11.084 18.219 11.107V15.502C18.1037 15.5363 17.985 15.5578 17.865 15.566C17.7256 15.5773 17.5858 15.5826 17.446 15.582C17.1642 15.5833 16.8841 15.5398 16.616 15.453C16.3626 15.3733 16.1311 15.2356 15.94 15.051C15.7406 14.8501 15.5868 14.6087 15.489 14.343C15.3692 14.0128 15.3119 13.6632 15.32 13.312C15.2989 12.8644 15.414 12.421 15.65 12.04C15.863 11.724 16.154 11.469 16.495 11.299C16.845 11.126 17.231 11.037 17.622 11.041C17.733 11.043 17.843 11.048 17.953 11.059Z" fill="#FF61F6"/>
</g>
<defs>
<clipPath id="clip0_5_1383">
<rect width="24" height="24" fill="white" transform="translate(0 0.5)"/>
</clipPath>
</defs>
</svg>
