<svg width="24" height="24" viewBox="0 0 24 25" fill="none" xmlns="http://www.w3.org/2000/svg">
<g clip-path="url(#clip0_5_1373)">
<path d="M8.54 11.23C8.44 10.92 8.35 10.62 8.25 10.31C8.15 10 8.06 9.71005 7.98 9.42005C7.9 9.14005 7.83 8.88005 7.76 8.64005H7.74C7.65 9.07005 7.54 9.50005 7.4 9.93005C7.25 10.41 7.1 10.91 6.94 11.41C6.81 11.92 6.65 12.39 6.5 12.81H9.04C8.98 12.6 8.9 12.35 8.81 12.09C8.72 11.82 8.63 11.53 8.54 11.23ZM17.12 10.94C16.57 10.91 16.05 11.2 15.79 11.7C15.67 11.93 15.6 12.17 15.57 12.42H17.679C17.939 12.42 18.129 12.42 18.249 12.41C18.329 12.4 18.409 12.38 18.479 12.33V12.23C18.479 12.1 18.458 11.98 18.418 11.86C18.24 11.3 17.71 10.92 17.12 10.94ZM19.75 0.800049H4.25C1.9 0.800049 0 2.70005 0 5.05005V19.9501C0 22.3001 1.9 24.2001 4.25 24.2001H19.75C22.1 24.2001 24 22.3001 24 19.9501V5.05005C24 2.70005 22.1 0.800049 19.75 0.800049ZM12.71 17.3111H10.62C10.55 17.3211 10.48 17.2701 10.46 17.201L9.64 14.801H5.92L5.16 17.161C5.14 17.251 5.06 17.3111 4.97 17.3011H3.09C2.98 17.3011 2.95 17.2411 2.98 17.121L6.2 7.89005C6.23 7.79005 6.26 7.70005 6.3 7.58005C6.34 7.37005 6.36 7.15005 6.36 6.93005C6.35 6.88005 6.39 6.83005 6.44 6.82005H9.03C9.1 6.82005 9.15 6.85005 9.16 6.90005L12.81 17.15C12.84 17.26 12.811 17.3111 12.71 17.3111ZM20.561 13.32C20.54 13.509 20.53 13.65 20.52 13.74C20.51 13.81 20.451 13.87 20.38 13.87C20.32 13.87 20.21 13.88 20.05 13.891C19.891 13.911 19.7 13.92 19.471 13.92C19.241 13.92 19 13.88 18.741 13.88H15.571C15.61 14.19 15.711 14.5 15.881 14.77C16.062 15.041 16.312 15.25 16.61 15.371C17.01 15.541 17.451 15.631 17.891 15.621C18.241 15.61 18.59 15.581 18.93 15.511C19.241 15.472 19.54 15.392 19.821 15.281C19.871 15.242 19.901 15.261 19.901 15.361V16.892C19.901 16.931 19.891 16.972 19.88 17.011C19.859 17.041 19.84 17.062 19.811 17.081C19.491 17.221 19.161 17.3211 18.811 17.3811C18.34 17.4711 17.871 17.511 17.391 17.501C16.63 17.501 15.991 17.381 15.471 17.151C14.981 16.94 14.55 16.61 14.21 16.201C13.891 15.811 13.66 15.371 13.52 14.891C13.38 14.42 13.311 13.93 13.311 13.43C13.311 12.891 13.391 12.36 13.561 11.84C13.721 11.34 13.971 10.88 14.311 10.47C14.641 10.07 15.05 9.75005 15.52 9.52005C15.991 9.29005 16.55 9.21005 17.19 9.21005C17.721 9.20005 18.25 9.30005 18.74 9.52005C19.15 9.70005 19.51 9.97005 19.79 10.32C20.05 10.66 20.26 11.04 20.391 11.46C20.52 11.86 20.58 12.27 20.58 12.68C20.58 12.92 20.57 13.13 20.561 13.32Z" fill="#9999FF"/>
</g>
<defs>
<clipPath id="clip0_5_1373">
<rect width="24" height="24" fill="white" transform="translate(0 0.5)"/>
</clipPath>
</defs>
</svg>
