<svg width="24" height="24" viewBox="0 0 24 25" fill="none" xmlns="http://www.w3.org/2000/svg">
<g clip-path="url(#clip0_5_1401)">
<path d="M16.9414 5.47575C15.0901 5.48815 13.3184 6.23 12.0106 7.54035C10.7171 8.83712 9.98059 10.5873 9.95759 12.4187C9.93458 14.2502 10.6269 16.0183 11.8874 17.3472L14.2824 14.9522C13.6564 14.2583 13.3208 13.3505 13.345 12.4162C13.3691 11.482 13.751 10.5927 14.412 9.93206C15.0729 9.27137 15.9623 8.88974 16.8965 8.86597C17.8308 8.8422 18.7384 9.17812 19.4321 9.80435L21.8291 7.40545C20.5104 6.15486 18.7588 5.4633 16.9414 5.47575ZM7.07 5.48555C5.25234 5.47359 3.50064 6.16584 2.1822 7.41715L4.5733 9.80825C5.26681 9.18071 6.17508 8.8439 7.11007 8.86756C8.04505 8.89122 8.93513 9.27354 9.596 9.93535L11.3301 6.96165L11.2304 6.88145C10.028 5.98433 8.57019 5.49521 7.07 5.48555ZM22.0793 7.65765L19.6901 10.0488C20.3204 10.7419 20.6596 11.6512 20.6373 12.5878C20.6151 13.5244 20.2331 14.4165 19.5706 15.079C18.9081 15.7414 18.016 16.1234 17.0794 16.1457C16.1428 16.1679 15.2336 15.8287 14.5404 15.1985L12.1337 17.6053C13.4653 18.8623 15.2344 19.5507 17.0654 19.5243C18.8964 19.4979 20.645 18.7587 21.9397 17.4637C23.2344 16.1687 23.9733 14.42 23.9994 12.589C24.0254 10.758 23.3366 8.98896 22.0793 7.65765ZM1.932 7.66745C0.691863 8.97395 0.000311235 10.7065 -6.08849e-05 12.5079C-0.000433005 14.3092 0.690403 16.042 1.93 17.3491L4.327 14.9521C3.71959 14.2825 3.38279 13.411 3.38205 12.507C3.38131 11.603 3.71669 10.731 4.323 10.0605L1.932 7.66745ZM9.596 15.091C8.216 16.4726 6.0097 16.502 4.5792 15.2044L2.1822 17.5994C4.6515 19.9322 8.4452 20.1747 11.1894 18.1449L11.3262 18.0334L9.596 15.091Z" fill="#F9AB00"/>
</g>
<defs>
<clipPath id="clip0_5_1401">
<rect width="24" height="24" fill="white" transform="translate(0 0.5)"/>
</clipPath>
</defs>
</svg>
