<svg width="24" height="24" viewBox="0 0 24 25" fill="none" xmlns="http://www.w3.org/2000/svg">
<g clip-path="url(#clip0_5_1385)">
<path d="M12 0.5C8.8174 0.5 5.76515 1.76428 3.51472 4.01472C1.26428 6.26515 0 9.3174 0 12.5C0 15.6826 1.26428 18.7348 3.51472 20.9853C5.76515 23.2357 8.8174 24.5 12 24.5C15.1826 24.5 18.2348 23.2357 20.4853 20.9853C22.7357 18.7348 24 15.6826 24 12.5C24 9.3174 22.7357 6.26515 20.4853 4.01472C18.2348 1.76428 15.1826 0.5 12 0.5ZM9.426 7.62C10.1053 7.62411 10.7782 7.75291 11.411 8V9.181C10.7234 8.79891 9.94758 8.60376 9.161 8.615C8.67127 8.59872 8.18372 8.68728 7.731 8.87475C7.27828 9.06221 6.87085 9.34426 6.536 9.702C5.83407 10.5025 5.47114 11.5447 5.524 12.608C5.47166 13.6136 5.81029 14.6004 6.469 15.362C6.78463 15.7012 7.16982 15.9682 7.59819 16.1448C8.02657 16.3213 8.48803 16.4033 8.951 16.385C9.81526 16.4065 10.6684 16.1869 11.415 15.751L11.411 16.831C10.5947 17.2282 9.69325 17.4188 8.786 17.386C8.1866 17.4122 7.58852 17.3101 7.0318 17.0864C6.47509 16.8627 5.9726 16.5227 5.558 16.089C4.72416 15.1546 4.28913 13.931 4.346 12.68C4.31705 12.0092 4.42293 11.3394 4.65739 10.7102C4.89185 10.081 5.25012 9.50528 5.711 9.017C6.16122 8.55616 6.70264 8.19433 7.30066 7.95464C7.89868 7.71495 8.54012 7.60268 9.184 7.625C9.22398 7.62323 9.26399 7.6219 9.304 7.621C9.34467 7.62055 9.38533 7.61955 9.426 7.62ZM15.289 7.775H16.125L15.57 10.427H17.231L17.798 7.775H18.608L18.053 10.427L19.785 10.423L19.635 11.12H17.91L17.498 13.1H19.35L19.174 13.798H17.358L16.778 16.423H15.948L16.515 13.798H14.865L14.31 16.423H13.5L14.055 13.798H12.315L12.446 13.1H14.194L14.595 11.124H12.769L12.907 10.427H14.733L15.289 7.775ZM15.431 11.12L15 13.1H16.673L17.096 11.12H15.431Z" fill="#239120"/>
</g>
<defs>
<clipPath id="clip0_5_1385">
<rect width="24" height="24" fill="white" transform="translate(0 0.5)"/>
</clipPath>
</defs>
</svg>
