<svg width="24" height="24" viewBox="0 0 24 25" fill="none" xmlns="http://www.w3.org/2000/svg">
<g clip-path="url(#clip0_5_1389)">
<path d="M13.983 11.5779H16.102C16.1512 11.5779 16.1983 11.5585 16.2332 11.5238C16.268 11.4891 16.2877 11.4421 16.288 11.3929V9.50592C16.288 9.45659 16.2684 9.40928 16.2335 9.37439C16.1986 9.33951 16.1513 9.31992 16.102 9.31992H13.983C13.9339 9.31992 13.8869 9.33941 13.8522 9.3741C13.8175 9.4088 13.798 9.45585 13.798 9.50492V11.3929C13.798 11.4949 13.881 11.5779 13.983 11.5779ZM11.029 6.14792H13.147C13.1963 6.14792 13.2436 6.12832 13.2785 6.09344C13.3134 6.05856 13.333 6.01125 13.333 5.96192V4.07392C13.3327 4.02476 13.313 3.97771 13.2782 3.94304C13.2433 3.90837 13.1962 3.88892 13.147 3.88892H11.029C10.9799 3.88892 10.9329 3.90841 10.8982 3.9431C10.8635 3.9778 10.844 4.02485 10.844 4.07392V5.96192C10.844 6.06392 10.926 6.14792 11.029 6.14792ZM11.029 8.86292H13.147C13.1963 8.86265 13.2434 8.84297 13.2782 8.80815C13.3131 8.77332 13.3327 8.72617 13.333 8.67692V6.78992C13.3327 6.74076 13.313 6.69371 13.2782 6.65904C13.2433 6.62437 13.1962 6.60492 13.147 6.60492H11.029C10.9799 6.60492 10.9329 6.62441 10.8982 6.6591C10.8635 6.6938 10.844 6.74085 10.844 6.78992V8.67692C10.844 8.77892 10.926 8.86192 11.029 8.86292ZM8.099 8.86292H10.219C10.268 8.86239 10.3148 8.84256 10.3492 8.80774C10.3837 8.77291 10.403 8.7259 10.403 8.67692V6.78992C10.403 6.74085 10.3835 6.6938 10.3488 6.6591C10.3141 6.62441 10.2671 6.60492 10.218 6.60492H8.1C8.05094 6.60492 8.00388 6.62441 7.96919 6.6591C7.93449 6.6938 7.915 6.74085 7.915 6.78992V8.67692C7.915 8.77892 7.998 8.86192 8.1 8.86292M5.136 8.86292H7.255C7.30416 8.86265 7.35121 8.84294 7.38588 8.80809C7.42054 8.77323 7.44 8.72607 7.44 8.67692V6.78992C7.44 6.74085 7.42051 6.6938 7.38582 6.6591C7.35112 6.62441 7.30407 6.60492 7.255 6.60492H5.136C5.08684 6.60492 5.03969 6.62437 5.00483 6.65904C4.96998 6.69371 4.95027 6.74076 4.95 6.78992V8.67692C4.95 8.77892 5.034 8.86192 5.136 8.86292ZM11.029 11.5779H13.147C13.1962 11.5779 13.2433 11.5585 13.2782 11.5238C13.313 11.4891 13.3327 11.4421 13.333 11.3929V9.50592C13.333 9.45659 13.3134 9.40928 13.2785 9.37439C13.2436 9.33951 13.1963 9.31992 13.147 9.31992H11.029C10.9799 9.31992 10.9329 9.33941 10.8982 9.3741C10.8635 9.4088 10.844 9.45585 10.844 9.50492V11.3929C10.844 11.4949 10.926 11.5779 11.029 11.5779ZM8.099 11.5779H10.219C10.2679 11.5777 10.3147 11.558 10.3492 11.5234C10.3836 11.4887 10.403 11.4418 10.403 11.3929V9.50592C10.4031 9.48162 10.3985 9.45754 10.3893 9.43504C10.3801 9.41255 10.3666 9.39208 10.3495 9.37481C10.3324 9.35754 10.3121 9.3438 10.2897 9.33438C10.2673 9.32496 10.2433 9.32005 10.219 9.31992H8.099C8.05011 9.32018 8.00331 9.33979 7.96883 9.37445C7.93435 9.40912 7.915 9.45602 7.915 9.50492V11.3929C7.915 11.4949 7.998 11.5779 8.1 11.5779M5.136 11.5779H7.255C7.30407 11.5779 7.35112 11.5584 7.38582 11.5237C7.42051 11.489 7.44 11.442 7.44 11.3929V9.50592C7.44013 9.48162 7.43548 9.45754 7.4263 9.43504C7.41713 9.41255 7.40361 9.39208 7.38652 9.37481C7.36944 9.35754 7.34912 9.3438 7.32672 9.33438C7.30433 9.32496 7.2803 9.32005 7.256 9.31992H5.136C5.08667 9.31992 5.03936 9.33951 5.00448 9.37439C4.9696 9.40928 4.95 9.45659 4.95 9.50592V11.3929C4.95 11.4949 5.034 11.5779 5.136 11.5779ZM2.216 11.5779H4.336C4.38489 11.5777 4.43169 11.558 4.46617 11.5234C4.50065 11.4887 4.52 11.4418 4.52 11.3929V9.50592C4.52013 9.48162 4.51548 9.45754 4.5063 9.43504C4.49713 9.41255 4.48361 9.39208 4.46652 9.37481C4.44944 9.35754 4.42912 9.3438 4.40672 9.33438C4.38433 9.32496 4.3603 9.32005 4.336 9.31992H2.216C2.16711 9.32018 2.12031 9.33979 2.08583 9.37445C2.05135 9.40912 2.032 9.45602 2.032 9.50492V11.3929C2.032 11.4949 2.113 11.5779 2.216 11.5779ZM23.763 10.3899C23.698 10.3389 23.091 9.87992 21.809 9.87992C21.471 9.88092 21.133 9.90992 20.799 9.96692C20.551 8.26692 19.146 7.43692 19.083 7.40092L18.739 7.20192L18.513 7.52892C18.229 7.96692 18.023 8.45092 17.901 8.95892C17.671 9.92892 17.811 10.8409 18.304 11.6199C17.709 11.9519 16.754 12.0329 16.56 12.0399H0.751002C0.552516 12.0402 0.362206 12.119 0.221668 12.2592C0.0811302 12.3993 0.00179448 12.5894 0.00100177 12.7879C-0.0175165 14.1728 0.216996 15.5493 0.693002 16.8499C1.238 18.2779 2.048 19.3299 3.103 19.9739C4.283 20.6969 6.203 21.1109 8.378 21.1109C9.361 21.1139 10.341 21.0249 11.308 20.8449C12.6508 20.5982 13.943 20.1288 15.131 19.4559C16.111 18.8889 16.991 18.1679 17.741 17.3199C18.993 15.9019 19.739 14.3229 20.294 12.9199H20.515C21.887 12.9199 22.73 12.3709 23.195 11.9109C23.504 11.6179 23.745 11.2609 23.902 10.8649L24 10.5769L23.763 10.3899Z" fill="#2496ED"/>
</g>
<defs>
<clipPath id="clip0_5_1389">
<rect width="24" height="24" fill="white" transform="translate(0 0.5)"/>
</clipPath>
</defs>
</svg>
