<svg width="24" height="24" viewBox="0 0 24 25" fill="none" xmlns="http://www.w3.org/2000/svg">
<g clip-path="url(#clip0_5_1391)">
<path d="M15.852 9.481H11.264V0.5H15.852C18.328 0.5 20.342 2.514 20.342 4.99C20.342 7.466 18.328 9.481 15.852 9.481ZM12.735 8.01H15.852C17.517 8.01 18.871 6.655 18.871 4.991C18.871 3.327 17.516 1.972 15.852 1.972H12.735V8.01ZM12.735 9.481H8.148C5.672 9.481 3.658 7.467 3.658 4.991C3.658 2.515 5.672 0.5 8.148 0.5H12.736V9.481H12.735ZM8.148 1.971C6.483 1.971 5.129 3.326 5.129 4.99C5.129 6.654 6.483 8.01 8.148 8.01H11.265V1.971H8.148ZM12.735 16.99H8.148C5.672 16.99 3.658 14.976 3.658 12.5C3.658 10.024 5.672 8.01 8.148 8.01H12.736V16.99H12.735ZM8.148 9.481C6.483 9.481 5.129 10.836 5.129 12.5C5.129 14.164 6.484 15.519 8.148 15.519H11.265V9.481H8.148ZM8.172 24.5C5.683 24.5 3.657 22.486 3.657 20.01C3.657 17.534 5.671 15.52 8.147 15.52H12.735V19.961C12.735 22.464 10.688 24.5 8.172 24.5ZM8.148 16.99C7.34763 16.9911 6.58035 17.3095 6.01441 17.8754C5.44847 18.4414 5.13006 19.2086 5.129 20.009C5.129 21.674 6.494 23.028 8.173 23.028C9.878 23.028 11.266 21.652 11.266 19.96V16.99H8.148ZM15.852 16.99H15.754C13.278 16.99 11.264 14.976 11.264 12.5C11.264 10.024 13.278 8.01 15.754 8.01H15.852C18.328 8.01 20.342 10.024 20.342 12.5C20.342 14.976 18.328 16.99 15.852 16.99ZM15.755 9.481C14.09 9.481 12.736 10.836 12.736 12.5C12.736 14.164 14.091 15.519 15.755 15.519H15.853C17.518 15.519 18.872 14.164 18.872 12.5C18.872 10.836 17.516 9.481 15.852 9.481H15.755Z" fill="#F24E1E"/>
</g>
<defs>
<clipPath id="clip0_5_1391">
<rect width="24" height="24" fill="white" transform="translate(0 0.5)"/>
</clipPath>
</defs>
</svg>
