<svg width="24" height="24" viewBox="0 0 24 25" fill="none" xmlns="http://www.w3.org/2000/svg">
<g clip-path="url(#clip0_5_1479)">
<path d="M3.88998 16.1719L6.25498 0.960936C6.27194 0.848104 6.32408 0.743503 6.40397 0.662035C6.48385 0.580567 6.58741 0.526389 6.69989 0.507218C6.81237 0.488046 6.92803 0.504861 7.03039 0.555266C7.13275 0.60567 7.2166 0.687094 7.26998 0.787936L9.81298 5.55894L3.88998 16.1719ZM20.684 19.8639L18.434 5.86394C18.4186 5.765 18.3759 5.6723 18.3108 5.59619C18.2458 5.52009 18.1608 5.46357 18.0655 5.43297C17.9701 5.40237 17.8682 5.39887 17.7709 5.42288C17.6737 5.44689 17.5851 5.49746 17.515 5.56894L3.31598 19.8649L11.172 24.2919C11.4144 24.4282 11.6879 24.4997 11.966 24.4997C12.2441 24.4997 12.5175 24.4282 12.76 24.2919L20.684 19.8639ZM14.3 7.64694L12.48 4.16494C12.4341 4.07737 12.3651 4.00404 12.2805 3.95287C12.1958 3.9017 12.0989 3.87466 12 3.87466C11.9011 3.87466 11.8041 3.9017 11.7195 3.95287C11.6349 4.00404 11.5659 4.07737 11.52 4.16494L3.52998 18.4839L14.3 7.64694Z" fill="#FFCA28"/>
</g>
<defs>
<clipPath id="clip0_5_1479">
<rect width="24" height="24" fill="white" transform="translate(0 0.5)"/>
</clipPath>
</defs>
</svg>
