<svg width="24" height="24" viewBox="0 0 24 25" fill="none" xmlns="http://www.w3.org/2000/svg">
<g clip-path="url(#clip0_5_1397)">
<path d="M22.84 3.49831V21.497C22.8486 23.1443 21.5203 24.4867 19.873 24.4954C19.7501 24.4961 19.6273 24.4891 19.5053 24.4746C17.9773 24.2486 16.8576 22.9188 16.8948 21.3746V3.62051C16.8579 2.07471 17.9804 0.744308 19.5105 0.520508C21.1466 0.329008 22.6283 1.50011 22.8198 3.13631C22.8338 3.25641 22.8406 3.37741 22.84 3.49831ZM4.1326 18.5549C2.4909 18.5549 1.16 19.8859 1.16 21.5275C1.16 23.1692 2.4909 24.5001 4.1326 24.5001C5.7743 24.5001 7.1052 23.1692 7.1052 21.5275C7.1052 19.8858 5.7742 18.5549 4.1326 18.5549ZM12.0054 9.54511C11.9883 9.54511 11.9712 9.54511 11.9541 9.54541C10.3046 9.63581 9.0248 11.0194 9.0631 12.671V20.6556C9.0631 22.8226 10.0166 24.1381 11.4136 24.4186C13.0254 24.7452 14.5968 23.7034 14.9234 22.0916C14.9634 21.8942 14.9834 21.6933 14.9827 21.4918V12.5333C14.9857 10.8859 13.6527 9.54811 12.0054 9.54511Z" fill="#E37400"/>
</g>
<defs>
<clipPath id="clip0_5_1397">
<rect width="24" height="24" fill="white" transform="translate(0 0.5)"/>
</clipPath>
</defs>
</svg>
