<svg width="24" height="24" viewBox="0 0 24 25" fill="none" xmlns="http://www.w3.org/2000/svg">
<path d="M12.19 2.87995C10.1019 2.83156 8.05775 3.48418 6.38398 4.73361C4.71021 5.98305 3.50332 7.75725 2.95601 9.77295C2.90101 9.78595 3.00901 9.75295 2.95601 9.77295C-0.918993 12.324 -0.965993 17.883 2.70901 20.714L2.71501 20.707L2.70801 20.737C3.88189 21.6231 5.3142 22.0995 6.78501 22.093H11.958L11.988 22.123H17.18C23.867 22.176 26.556 13.518 21.015 9.77295C20.5378 8.01337 19.5574 6.43135 18.194 5.22095L18.151 5.26395L18.157 5.21395C16.5052 3.75702 14.3919 2.93039 12.19 2.87995ZM11.832 7.02595C13.076 6.98595 14.35 7.39395 15.318 8.17595C15.9137 8.67311 16.3902 9.29759 16.7124 10.0034C17.0347 10.7091 17.1945 11.4782 17.18 12.254V12.772C20.71 12.702 20.71 18.034 17.18 17.965H11.987L11.979 17.974V17.934H6.78501C6.41704 17.934 6.0533 17.8555 5.71801 17.704C5.33545 17.5307 5.00161 17.2673 4.74319 16.9363C4.48476 16.6053 4.31047 16.2165 4.23524 15.8034C4.16001 15.3902 4.1861 14.965 4.31126 14.5642C4.43643 14.1633 4.65693 13.7988 4.95388 13.5018C5.25082 13.2049 5.61535 12.9844 6.01621 12.8592C6.41707 12.734 6.8423 12.708 7.25545 12.7832C7.6686 12.8584 8.05735 13.0327 8.38836 13.2911C8.71938 13.5496 8.98279 13.8844 9.15601 14.267L12.169 11.255C11.1678 9.94986 9.72434 9.05548 8.11001 8.73995C8.12801 8.72995 8.15001 8.71395 8.16401 8.71695C8.63153 8.20401 9.19725 7.79014 9.82765 7.49984C10.4581 7.20955 11.1403 7.04874 11.834 7.02695L11.832 7.02595Z" fill="#4285F4"/>
</svg>
