<svg width="24" height="24" viewBox="0 0 24 25" fill="none" xmlns="http://www.w3.org/2000/svg">
<g clip-path="url(#clip0_5_1393)">
<path d="M23.546 11.43L13.067 0.952006C12.463 0.349006 11.485 0.349006 10.879 0.952006L8.708 3.12701L11.468 5.88701C12.113 5.67201 12.847 5.81701 13.357 6.32801C13.873 6.84301 14.015 7.58601 13.795 8.22801L16.453 10.888C17.098 10.665 17.84 10.81 18.353 11.323C19.074 12.043 19.074 13.207 18.353 13.927C17.634 14.646 16.472 14.646 15.753 13.927C15.214 13.386 15.079 12.59 15.349 11.931L12.86 9.45501V15.98C13.036 16.066 13.202 16.183 13.348 16.328C14.061 17.049 14.061 18.211 13.348 18.928C12.629 19.649 11.459 19.649 10.739 18.928C10.02 18.209 10.02 17.049 10.739 16.33C10.921 16.15 11.126 16.014 11.344 15.924V9.33501C11.127 9.24401 10.92 9.11301 10.744 8.93401C10.199 8.38901 10.068 7.59201 10.348 6.92501L7.636 4.20001L0.45 11.381C-0.15 11.986 -0.15 12.965 0.45 13.57L10.93 24.047C11.534 24.651 12.512 24.651 13.116 24.047L23.546 13.617C24.151 13.014 24.151 12.035 23.546 11.43Z" fill="#F05032"/>
</g>
<defs>
<clipPath id="clip0_5_1393">
<rect width="24" height="24" fill="white" transform="translate(0 0.5)"/>
</clipPath>
</defs>
</svg>
