<svg width="24" height="24" viewBox="0 0 24 25" fill="none" xmlns="http://www.w3.org/2000/svg">
<g clip-path="url(#clip0_5_1395)">
<path d="M12 0.797119C5.37 0.797119 0 6.17012 0 12.7971C0 18.1001 3.438 22.5971 8.205 24.1821C8.805 24.2951 9.025 23.9241 9.025 23.6051C9.025 23.3201 9.015 22.5651 9.01 21.5651C5.672 22.2891 4.968 19.9551 4.968 19.9551C4.422 18.5701 3.633 18.2001 3.633 18.2001C2.546 17.4561 3.717 17.4711 3.717 17.4711C4.922 17.5551 5.555 18.7071 5.555 18.7071C6.625 20.5421 8.364 20.0121 9.05 19.7051C9.158 18.9291 9.467 18.4001 9.81 18.1001C7.145 17.8001 4.344 16.7681 4.344 12.1701C4.344 10.8601 4.809 9.79012 5.579 8.95012C5.444 8.64712 5.039 7.42712 5.684 5.77412C5.684 5.77412 6.689 5.45212 8.984 7.00412C9.944 6.73712 10.964 6.60512 11.984 6.59912C13.004 6.60512 14.024 6.73712 14.984 7.00412C17.264 5.45212 18.269 5.77412 18.269 5.77412C18.914 7.42712 18.509 8.64712 18.389 8.95012C19.154 9.79012 19.619 10.8601 19.619 12.1701C19.619 16.7801 16.814 17.7951 14.144 18.0901C14.564 18.4501 14.954 19.1861 14.954 20.3101C14.954 21.9161 14.939 23.2061 14.939 23.5961C14.939 23.9111 15.149 24.2861 15.764 24.1661C20.565 22.5921 24 18.0921 24 12.7971C24 6.17012 18.627 0.797119 12 0.797119Z" fill="#181717"/>
</g>
<defs>
<clipPath id="clip0_5_1395">
<rect width="24" height="24" fill="white" transform="translate(0 0.5)"/>
</clipPath>
</defs>
</svg>
