<svg width="24" height="24" viewBox="0 0 24 25" fill="none" xmlns="http://www.w3.org/2000/svg">
<g clip-path="url(#clip0_5_1407)">
<path d="M23.02 11.09C22.9227 10.0341 22.6304 9.00536 22.158 8.056C21.7056 7.14486 21.1005 6.31791 20.369 5.611C20.706 4.269 19.956 3.106 19.956 3.106C18.664 3.026 17.843 3.506 17.54 3.726C17.488 3.706 17.438 3.682 17.386 3.662C17.166 3.573 16.94 3.49 16.709 3.415C16.478 3.342 16.239 3.275 15.998 3.218C15.7089 3.1512 15.4169 3.09748 15.123 3.057C14.557 1.253 12.94 0.5 12.94 0.5C11.136 1.645 10.793 3.244 10.793 3.244L10.775 3.337C10.677 3.366 10.575 3.394 10.477 3.425C10.339 3.467 10.202 3.519 10.064 3.568C9.926 3.623 9.789 3.675 9.654 3.734C9.10709 3.97094 8.58545 4.26242 8.097 4.604L8.034 4.575C5.537 3.62 3.318 4.77 3.318 4.77C3.115 7.428 4.314 9.1 4.553 9.406C4.24871 10.2577 4.045 11.142 3.946 12.041C1.636 13.177 0.953003 15.514 0.953003 15.514C2.879 17.728 5.124 17.865 5.124 17.865C5.127 17.863 5.13 17.863 5.13 17.86C5.415 18.369 5.745 18.854 6.116 19.306C6.272 19.496 6.436 19.677 6.604 19.854C5.9 21.863 6.703 23.534 6.703 23.534C8.847 23.614 10.256 22.597 10.552 22.361C11.572 22.7007 12.641 22.87 13.716 22.862H13.796L13.851 22.859L13.958 22.857L14.061 22.852L14.064 22.854C15.074 24.294 16.852 24.5 16.852 24.5C18.116 23.168 18.189 21.847 18.189 21.56V21.502C18.189 21.482 18.186 21.463 18.186 21.442C18.451 21.255 18.706 21.055 18.944 20.842C19.4933 20.3447 19.9697 19.7724 20.359 19.142C21.789 19.225 22.796 18.257 22.796 18.257C22.56 16.767 21.711 16.041 21.532 15.903L21.514 15.89L21.498 15.877C21.4871 15.8712 21.4767 15.8645 21.467 15.857C21.475 15.765 21.483 15.677 21.487 15.587C21.498 15.425 21.503 15.264 21.503 15.107V14.854L21.498 14.756L21.49 14.621C21.4882 14.5776 21.4848 14.5342 21.48 14.491C21.477 14.449 21.472 14.408 21.467 14.366L21.451 14.242L21.433 14.12C21.2147 12.6766 20.4954 11.3561 19.401 10.39C18.4976 9.59139 17.3751 9.08272 16.179 8.93C15.8971 8.89483 15.6131 8.87879 15.329 8.882L15.222 8.884H15.159L15.115 8.887L15.011 8.895C14.3697 8.93861 13.7437 9.1112 13.1707 9.40246C12.5976 9.69371 12.0893 10.0976 11.676 10.59C11.344 10.99 11.084 11.43 10.908 11.887C10.6823 12.4654 10.5762 13.0835 10.596 13.704L10.599 13.795C10.604 13.85 10.606 13.905 10.612 13.959C10.6736 14.6181 10.9151 15.2477 11.31 15.779C11.7643 16.3927 12.4054 16.8425 13.137 17.061C13.467 17.159 13.797 17.201 14.108 17.198C14.147 17.198 14.186 17.198 14.222 17.196L14.285 17.193C14.305 17.193 14.326 17.19 14.347 17.19C14.381 17.188 14.412 17.183 14.446 17.18C14.453 17.18 14.464 17.177 14.474 17.177L14.505 17.172L14.565 17.164C14.6026 17.1591 14.64 17.1525 14.677 17.144C14.713 17.136 14.749 17.131 14.786 17.12C15.1145 17.0415 15.4248 16.9006 15.7 16.705C15.728 16.685 15.756 16.664 15.785 16.64C15.8107 16.6197 15.832 16.5944 15.8479 16.5658C15.8638 16.5372 15.8738 16.5057 15.8774 16.4731C15.881 16.4406 15.8782 16.4077 15.869 16.3762C15.8599 16.3448 15.8446 16.3155 15.824 16.29C15.7879 16.2451 15.737 16.2145 15.6805 16.2035C15.6239 16.1925 15.5653 16.2019 15.515 16.23L15.437 16.272C15.347 16.316 15.253 16.355 15.154 16.388C14.9992 16.4355 14.8401 16.4676 14.679 16.484C14.651 16.487 14.625 16.49 14.596 16.49L14.513 16.492C14.487 16.492 14.459 16.492 14.433 16.49L14.331 16.484H14.319L14.295 16.49C14.279 16.487 14.264 16.487 14.251 16.484C14.22 16.482 14.191 16.477 14.16 16.474C13.9096 16.4387 13.6656 16.367 13.436 16.261C13.1921 16.1508 12.967 16.003 12.769 15.823C12.3398 15.4379 12.0557 14.9173 11.964 14.348C11.94 14.2013 11.9303 14.0526 11.935 13.904L11.941 13.782V13.759L11.943 13.728C11.946 13.707 11.946 13.688 11.948 13.668C11.9936 13.211 12.1382 12.7695 12.3716 12.374C12.6051 11.9785 12.9219 11.6387 13.3 11.378C13.5863 11.1837 13.903 11.0384 14.237 10.948C14.49 10.88 14.751 10.846 15.013 10.847H15.073L15.143 10.849L15.188 10.852H15.214L15.284 10.857C15.8577 10.9021 16.4151 11.0691 16.919 11.347C17.607 11.7286 18.1649 12.3075 18.521 13.009C18.7448 13.4497 18.8796 13.9302 18.918 14.423L18.923 14.499L18.926 14.574C18.928 14.6 18.928 14.624 18.928 14.649C18.928 14.673 18.931 14.701 18.928 14.719V14.784L18.926 14.857L18.918 15.031C18.9024 15.2452 18.8757 15.4585 18.838 15.67C18.7785 15.9867 18.6891 16.2971 18.571 16.597C18.4097 16.9976 18.2002 17.3771 17.947 17.727C17.1724 18.7953 16.0106 19.5182 14.71 19.741C14.4954 19.7776 14.2786 19.7997 14.061 19.807L14.022 19.81H13.735C13.1538 19.7975 12.5769 19.7084 12.019 19.545C10.6785 19.1553 9.49103 18.3611 8.619 17.271C8.33196 16.914 8.082 16.5287 7.873 16.121C7.45958 15.3138 7.21655 14.4301 7.159 13.525L7.154 13.442L7.152 13.422V13.366L7.149 13.293V13.197L7.146 13.093V13.023L7.149 12.86C7.157 12.64 7.175 12.41 7.203 12.182C7.26024 11.7236 7.35387 11.2705 7.483 10.827C7.611 10.383 7.769 9.955 7.956 9.55C8.30917 8.76704 8.80263 8.05532 9.412 7.45C9.70255 7.16353 10.0219 6.90784 10.365 6.687C10.534 6.576 10.708 6.474 10.889 6.381C10.978 6.331 11.071 6.29 11.162 6.246C11.209 6.226 11.255 6.204 11.3 6.184C11.5331 6.08241 11.7714 5.99329 12.014 5.917L12.159 5.872C12.208 5.857 12.257 5.846 12.307 5.831C12.405 5.802 12.504 5.779 12.603 5.755C12.652 5.742 12.703 5.735 12.753 5.722L12.903 5.69L13.054 5.662L13.13 5.649L13.205 5.639L13.358 5.615C13.415 5.605 13.472 5.602 13.529 5.592L13.698 5.571C13.734 5.568 13.771 5.563 13.804 5.561L13.877 5.553L13.913 5.55L13.955 5.548C14.012 5.545 14.069 5.54 14.126 5.538L14.212 5.532H14.235L14.272 5.529L14.417 5.522C14.9892 5.50242 15.5618 5.54433 16.125 5.647C16.8355 5.77913 17.5246 6.00792 18.173 6.327C18.7724 6.62135 19.3338 6.98736 19.845 7.417L19.935 7.494L20.024 7.572C20.084 7.624 20.138 7.679 20.195 7.731C20.252 7.783 20.307 7.837 20.361 7.891C20.413 7.946 20.468 7.998 20.52 8.055C21.0805 8.64491 21.5551 9.31077 21.93 10.033C21.942 10.059 21.958 10.085 21.97 10.111L22.01 10.189L22.085 10.345C22.108 10.396 22.135 10.445 22.155 10.498L22.22 10.648C22.4055 11.082 22.556 11.53 22.67 11.988C22.6812 12.0317 22.7076 12.0699 22.7444 12.0959C22.7812 12.122 22.8261 12.134 22.871 12.13C22.9175 12.1265 22.961 12.1056 22.9929 12.0715C23.0247 12.0375 23.0426 11.9927 23.043 11.946C23.053 11.7 23.045 11.414 23.019 11.09H23.02Z" fill="#F46800"/>
</g>
<defs>
<clipPath id="clip0_5_1407">
<rect width="24" height="24" fill="white" transform="translate(0 0.5)"/>
</clipPath>
</defs>
</svg>
