<svg width="24" height="24" viewBox="0 0 24 25" fill="none" xmlns="http://www.w3.org/2000/svg">
<g clip-path="url(#clip0_5_1405)">
<path d="M12.003 0.500002C11.4097 0.500129 10.8299 0.676144 10.3366 1.0058C9.84339 1.33545 9.45897 1.80394 9.23196 2.35204C9.00495 2.90014 8.94554 3.50324 9.06125 4.0851C9.17695 4.66696 9.46257 5.20145 9.882 5.621L16.747 12.486L12.301 17.027L14.046 18.863C14.3148 19.0732 14.5507 19.3222 14.746 19.602L14.758 19.613L14.757 19.615C15.1538 20.189 15.3663 20.8702 15.366 21.568C15.3659 21.8306 15.3357 22.0923 15.276 22.348L23.026 14.701C23.057 14.672 23.093 14.651 23.124 14.621C23.147 14.598 23.162 14.569 23.184 14.545C23.717 13.9788 24.0087 13.2274 23.9975 12.4499C23.9863 11.6723 23.673 10.9297 23.124 10.379L14.124 1.379C13.8458 1.09996 13.5152 0.878658 13.1512 0.727809C12.7872 0.576959 12.397 0.49954 12.003 0.500002ZM8.63 2.633L0.879996 10.309C0.318316 10.8712 0.00280762 11.6333 0.00280762 12.428C0.00280762 13.2227 0.318316 13.9848 0.879996 14.547L8.58 22.297C8.52838 22.0574 8.50256 21.8131 8.503 21.568C8.50326 20.6581 8.86483 19.7856 9.50821 19.1422C10.1516 18.4988 11.0241 18.1373 11.934 18.137C12.2124 18.137 12.4898 18.171 12.76 18.238L7.237 12.428L11.608 8.055L9.528 5.975C8.625 5.071 8.335 3.792 8.63 2.633ZM11.934 18.637C11.1567 18.6373 10.4114 18.9462 9.86176 19.4958C9.31215 20.0454 9.00326 20.7907 9.003 21.568C9.003 22.3454 9.31176 23.0911 9.86141 23.6409C10.411 24.1907 11.1566 24.4997 11.934 24.5C12.7116 24.5 13.4574 24.1911 14.0072 23.6412C14.5571 23.0914 14.866 22.3456 14.866 21.568C14.8657 20.7906 14.5567 20.0451 14.0069 19.4954C13.4571 18.9458 12.7114 18.637 11.934 18.637Z" fill="#246FDB"/>
</g>
<defs>
<clipPath id="clip0_5_1405">
<rect width="24" height="24" fill="white" transform="translate(0 0.5)"/>
</clipPath>
</defs>
</svg>
