<svg width="24" height="24" viewBox="0 0 24 25" fill="none" xmlns="http://www.w3.org/2000/svg">
<g clip-path="url(#clip0_5_1375)">
<path d="M10.53 11.23C10.43 10.92 10.34 10.62 10.24 10.31C10.14 10 10.05 9.71005 9.97 9.42005C9.89 9.14005 9.82 8.88005 9.75 8.64005H9.73C9.64 9.07005 9.53 9.50005 9.39 9.93005C9.24 10.41 9.09 10.91 8.93 11.41C8.79 11.92 8.64 12.39 8.49 12.81H11.03C10.97 12.599 10.89 12.35 10.8 12.089C10.71 11.82 10.62 11.53 10.53 11.23ZM19.75 0.800049H4.25C1.9 0.800049 0 2.70005 0 5.05005V19.9501C0 22.3001 1.9 24.2001 4.25 24.2001H19.75C22.1 24.2001 24 22.3001 24 19.9501V5.05005C24 2.70005 22.1 0.800049 19.75 0.800049ZM14.7 17.33H12.609C12.54 17.34 12.47 17.29 12.45 17.22L11.63 14.84H7.91L7.15 17.1901C7.13 17.2801 7.05 17.34 6.96 17.331H5.08C4.97 17.331 4.94 17.27 4.97 17.151L8.19 7.88005C8.22 7.78005 8.25 7.67005 8.29 7.55005C8.33 7.34005 8.35 7.12005 8.35 6.90005C8.34 6.85005 8.38 6.80005 8.43 6.79005H11.02C11.1 6.79005 11.14 6.82005 11.15 6.87005L14.8 17.17C14.83 17.279 14.8 17.33 14.7 17.33ZM18.1 17.18C18.1 17.2901 18.061 17.34 17.971 17.34H16.01C15.91 17.34 15.86 17.2791 15.86 17.18V9.48005C15.86 9.38005 15.901 9.34005 15.991 9.34005H17.971C18.061 9.34005 18.1 9.39005 18.1 9.48005V17.18ZM17.891 8.15005C17.66 8.39005 17.32 8.52005 16.98 8.50005C16.65 8.51005 16.33 8.38005 16.089 8.15005C15.859 7.90005 15.739 7.57005 15.749 7.23005C15.739 6.89005 15.869 6.57005 16.108 6.34005C16.35 6.11005 16.67 5.99005 17 5.99005C17.391 5.99005 17.689 6.11005 17.91 6.34005C18.13 6.58005 18.25 6.90005 18.24 7.23005C18.25 7.57005 18.13 7.90005 17.891 8.15005Z" fill="#FF9A00"/>
</g>
<defs>
<clipPath id="clip0_5_1375">
<rect width="24" height="24" fill="white" transform="translate(0 0.5)"/>
</clipPath>
</defs>
</svg>
