<svg width="24" height="24" viewBox="0 0 24 25" fill="none" xmlns="http://www.w3.org/2000/svg">
<g clip-path="url(#clip0_5_1411)">
<path d="M0 0.5H24V24.5H0V0.5ZM22.034 18.776C21.859 17.681 21.146 16.761 19.031 15.903C18.295 15.558 17.477 15.318 17.234 14.763C17.143 14.433 17.129 14.253 17.188 14.058C17.338 13.412 18.103 13.218 18.703 13.398C19.093 13.518 19.453 13.818 19.679 14.298C20.713 13.622 20.713 13.622 21.434 13.173C21.164 12.753 21.03 12.572 20.848 12.393C20.218 11.688 19.379 11.328 18.014 11.359L17.309 11.448C16.633 11.613 15.989 11.973 15.599 12.453C14.459 13.744 14.788 15.994 16.168 16.924C17.533 17.944 19.529 18.168 19.784 19.129C20.024 20.299 18.914 20.674 17.818 20.539C17.007 20.359 16.558 19.953 16.063 19.203L14.233 20.254C14.443 20.734 14.683 20.943 15.043 21.363C16.783 23.119 21.133 23.029 21.914 20.359C21.943 20.269 22.154 19.654 21.988 18.709L22.034 18.776ZM13.051 11.531H10.803C10.803 13.469 10.794 15.395 10.794 17.336C10.794 18.568 10.857 19.699 10.656 20.047C10.326 20.736 9.476 20.648 9.09 20.527C8.694 20.331 8.493 20.061 8.26 19.672C8.197 19.567 8.15 19.476 8.133 19.476L6.308 20.601C6.613 21.231 7.058 21.773 7.632 22.118C8.487 22.628 9.636 22.793 10.839 22.523C11.622 22.297 12.297 21.832 12.65 21.112C13.16 20.182 13.052 19.042 13.047 17.766C13.059 15.712 13.047 13.657 13.047 11.587L13.051 11.531Z" fill="#F7DF1E"/>
</g>
<defs>
<clipPath id="clip0_5_1411">
<rect width="24" height="24" fill="white" transform="translate(0 0.5)"/>
</clipPath>
</defs>
</svg>
