<svg width="24" height="24" viewBox="0 0 24 25" fill="none" xmlns="http://www.w3.org/2000/svg">
<g clip-path="url(#clip0_5_1413)">
<path d="M12.043 24.4681C12.522 24.4641 12.996 24.4391 13.469 24.3741C14.5526 24.2334 15.6113 23.9429 16.615 23.5111C18.0257 22.9057 19.3119 22.0438 20.408 20.9691C21.4172 19.9796 22.2432 18.8194 22.848 17.5421C23.365 16.4428 23.709 15.2703 23.868 14.0661C24.017 12.9061 24.003 11.7201 23.823 10.5671C23.6727 9.60901 23.4064 8.6728 23.03 7.77906C22.7899 7.21767 22.5043 6.67687 22.176 6.16206C21.008 4.32506 19.315 2.84806 17.366 1.86206C16.67 1.50653 15.943 1.21532 15.194 0.992056H15.189C15.308 1.05506 15.429 1.12406 15.534 1.19306C15.654 1.26706 15.773 1.33906 15.885 1.41806C16.454 1.8001 16.9771 2.24637 17.444 2.74806C18.507 3.89306 19.241 5.29606 19.662 6.78906C19.946 7.77106 20.096 8.78706 20.157 9.80606C20.201 10.5491 20.201 11.2971 20.11 12.0351C19.961 13.3051 19.556 14.5451 18.882 15.6311C18.3858 16.4403 17.7399 17.1475 16.979 17.7151C15.735 18.6431 14.102 19.1971 12.543 18.8291C12.2856 18.7685 12.035 18.6821 11.795 18.5711C11.5215 18.4464 11.2607 18.2957 11.016 18.1211C10.5527 17.8115 10.1341 17.4397 9.77201 17.0161C9.33276 16.4924 8.97876 15.9029 8.72301 15.2691C8.40975 14.4582 8.24251 13.5982 8.22901 12.7291C8.19901 11.4561 8.45401 10.1761 9.08301 9.05906C9.50438 8.31556 10.0697 7.66352 10.746 7.14106C10.971 6.96306 11.21 6.80806 11.45 6.66206L11.466 6.65506C10.9938 6.5471 10.5086 6.5067 10.025 6.53506C9.60719 6.56293 9.19458 6.64357 8.79701 6.77506C8.43801 6.89506 8.09301 7.04506 7.77801 7.22506C7.52214 7.37192 7.27717 7.53701 7.04501 7.71906C6.83401 7.89906 6.62501 8.07906 6.43001 8.27406C5.30701 9.42706 4.66201 10.9561 4.40801 12.5301C4.25801 13.5031 4.25801 14.4901 4.31701 15.4801C4.42201 16.8751 4.70801 18.2671 5.26201 19.5421C5.59944 20.3301 6.05389 21.0627 6.61001 21.7151C7.46096 22.6978 8.53492 23.4625 9.74201 23.9451C10.4181 24.2215 11.1292 24.4032 11.855 24.4851C11.929 24.5001 12.004 24.5001 12.064 24.5001L12.043 24.4681ZM9.10901 24.0701C8.95447 24.0034 8.80419 23.9272 8.65901 23.8421C7.90638 23.4361 7.21931 22.919 6.62101 22.3081C5.52701 21.1711 4.79401 19.7421 4.37401 18.2281C4.09738 17.1912 3.93145 16.1279 3.87901 15.0561C3.83468 14.362 3.85007 13.6655 3.92501 12.9741C4.06001 11.7171 4.42001 10.4731 5.04901 9.39406C5.50104 8.59806 6.10718 7.90013 6.83201 7.34106C7.32811 6.96084 7.87861 6.65744 8.46501 6.44106C9.60046 6.02996 10.8414 6.01411 11.987 6.39606C12.016 6.39606 12.016 6.39606 12.032 6.42606C12.047 6.44106 12.077 6.44106 12.092 6.45606C12.137 6.47206 12.196 6.50106 12.257 6.53006C12.496 6.65006 12.736 6.80106 12.961 6.95006C13.8679 7.58511 14.5912 8.44814 15.058 9.45206C15.478 10.3661 15.673 11.3861 15.689 12.3901C15.703 13.4691 15.509 14.5471 15.044 15.5361C14.4769 16.7289 13.5557 17.7179 12.406 18.3681C12.496 18.3981 12.586 18.4131 12.677 18.4431C12.902 18.4871 13.126 18.5171 13.365 18.5171C14.833 18.5621 16.257 17.8571 17.305 16.8701C17.5 16.6901 17.68 16.4951 17.845 16.2851C18.07 16.0151 18.28 15.7451 18.459 15.4621C18.698 15.0871 18.894 14.7121 19.073 14.3081C19.3018 13.7732 19.4725 13.2154 19.582 12.6441C19.778 11.6401 19.793 10.6221 19.731 9.61806C19.596 7.59606 19.058 5.57306 17.889 3.89406C17.7162 3.64526 17.5309 3.40529 17.334 3.17506C17.0061 2.80422 16.6508 2.45857 16.271 2.14106C15.8473 1.79268 15.3909 1.48624 14.908 1.22606C14.3632 0.976048 13.7969 0.775897 13.216 0.628056L12.916 0.568056C12.707 0.538056 12.496 0.524056 12.282 0.508056C11.9437 0.493051 11.6047 0.498394 11.267 0.524056C10.563 0.569056 9.85501 0.684056 9.15501 0.861056C5.79901 1.72706 2.86301 4.06606 1.30001 7.17006C0.801243 8.15889 0.443755 9.21284 0.238009 10.3011C0.00107807 11.5457 -0.0340374 12.8203 0.134009 14.0761C0.254009 15.0961 0.508009 16.0991 0.912009 17.0531C1.13901 17.6231 1.42301 18.1771 1.73701 18.7011C2.83101 20.4841 4.42001 21.9371 6.24701 22.9411C6.93501 23.3311 7.65501 23.6311 8.40401 23.8851C8.63001 23.9591 8.85401 24.0351 9.09301 24.0951L9.10901 24.0701Z" fill="black"/>
</g>
<defs>
<clipPath id="clip0_5_1413">
<rect width="24" height="24" fill="white" transform="translate(0 0.5)"/>
</clipPath>
</defs>
</svg>
