<svg width="24" height="24" viewBox="0 0 24 25" fill="none" xmlns="http://www.w3.org/2000/svg">
<g clip-path="url(#clip0_5_1377)">
<path d="M19.75 0.800049H4.25C1.9 0.800049 0 2.70005 0 5.05005V19.9501C0 22.3001 1.9 24.2001 4.25 24.2001H19.75C22.1 24.2001 24 22.3001 24 19.9501V5.05005C24 2.70005 22.1 0.800049 19.75 0.800049ZM12.76 17.189C12.76 17.24 12.731 17.279 12.7 17.31C12.67 17.33 12.64 17.3391 12.599 17.3391H6.26C6.15 17.3391 6.1 17.278 6.1 17.159V6.94005C6.09 6.87005 6.14 6.81005 6.21 6.80005H8.21C8.26 6.79005 8.32 6.83005 8.32 6.88005V15.31H12.94C13.041 15.31 13.071 15.359 13.05 15.45L12.76 17.189ZM19.01 9.33005V11.28C19.01 11.36 18.96 11.39 18.85 11.39C18.201 11.35 17.55 11.47 16.96 11.73C16.76 11.82 16.57 11.94 16.42 12.1V17.2001C16.42 17.3001 16.38 17.34 16.29 17.34H14.34C14.26 17.35 14.19 17.3001 14.18 17.2211V11.64C14.18 11.4 14.18 11.15 14.17 10.89C14.16 10.63 14.16 10.37 14.15 10.11C14.14 9.89005 14.12 9.67005 14.089 9.45005C14.079 9.40005 14.109 9.35005 14.159 9.34005C14.169 9.33005 14.179 9.33005 14.199 9.34005H15.949C16.049 9.34005 16.129 9.41005 16.159 9.50005C16.199 9.57005 16.229 9.65005 16.239 9.73005C16.259 9.83005 16.278 9.94005 16.289 10.04C16.299 10.15 16.31 10.27 16.31 10.4C16.609 10.05 16.97 9.76005 17.379 9.54005C17.839 9.29005 18.349 9.17005 18.869 9.18005C18.938 9.17005 18.999 9.22005 19.009 9.29005C19.01 9.30005 19.01 9.31005 19.01 9.33005Z" fill="#31A8FF"/>
</g>
<defs>
<clipPath id="clip0_5_1377">
<rect width="24" height="24" fill="white" transform="translate(0 0.5)"/>
</clipPath>
</defs>
</svg>
