<svg width="24" height="24" viewBox="0 0 24 25" fill="none" xmlns="http://www.w3.org/2000/svg">
<g clip-path="url(#clip0_5_1415)">
<path d="M12.504 0.5C12.349 0.5 12.189 0.508 12.024 0.521C7.79799 0.854 8.91899 5.328 8.85399 6.819C8.77799 7.911 8.55399 8.772 7.80399 9.839C6.91899 10.89 5.67699 12.589 5.08799 14.36C4.80999 15.192 4.67799 16.044 4.80099 16.849C4.75538 16.8859 4.71792 16.9319 4.69099 16.984C4.43099 17.252 4.24099 17.584 4.02799 17.823C3.82899 18.022 3.54299 18.09 3.23099 18.223C2.91799 18.359 2.57299 18.492 2.36699 18.903C2.27699 19.092 2.23099 19.297 2.23499 19.505C2.23499 19.704 2.26199 19.905 2.28999 20.041C2.34799 20.44 2.40599 20.769 2.32999 21.011C2.08099 21.691 2.04999 22.156 2.22399 22.495C2.39799 22.829 2.75899 22.965 3.16399 23.096C3.97399 23.296 5.07399 23.231 5.93799 23.696C6.86399 24.162 7.80399 24.366 8.55399 24.166C9.07999 24.05 9.52399 23.702 9.76199 23.22C10.349 23.217 10.992 22.951 12.022 22.886C12.721 22.828 13.596 23.153 14.599 23.086C14.624 23.22 14.662 23.284 14.713 23.419L14.716 23.422C15.107 24.2 15.829 24.554 16.6 24.493C17.371 24.433 18.192 23.957 18.857 23.187C19.488 22.422 20.54 22.103 21.235 21.684C21.583 21.485 21.864 21.215 21.884 20.831C21.907 20.431 21.684 20.02 21.17 19.455V19.358L21.167 19.355C20.997 19.155 20.917 18.82 20.829 18.429C20.744 18.028 20.647 17.643 20.337 17.383H20.334C20.275 17.329 20.211 17.316 20.146 17.248C20.0901 17.209 20.0241 17.1867 19.956 17.184C20.387 15.906 20.22 14.634 19.783 13.49C19.25 12.08 18.318 10.852 17.608 10.007C16.812 9.002 16.032 8.05 16.048 6.639C16.074 4.487 16.284 0.506 12.504 0.5ZM13.033 3.905H13.046C13.259 3.905 13.442 3.967 13.63 4.103C13.82 4.238 13.96 4.435 14.068 4.636C14.173 4.895 14.226 5.095 14.234 5.36C14.234 5.34 14.24 5.32 14.24 5.3V5.405C14.2378 5.39819 14.2364 5.39114 14.236 5.384L14.232 5.36C14.23 5.60303 14.179 5.84315 14.082 6.066C14.0353 6.19138 13.9627 6.30552 13.869 6.401C13.8407 6.385 13.8112 6.37097 13.781 6.359C13.677 6.314 13.583 6.295 13.497 6.226C13.4257 6.19761 13.3521 6.17553 13.277 6.16C13.327 6.1 13.423 6.027 13.46 5.962C13.513 5.834 13.542 5.698 13.548 5.56V5.54C13.5503 5.40419 13.5296 5.26896 13.487 5.14C13.442 5.006 13.386 4.94 13.304 4.807C13.22 4.741 13.137 4.675 13.037 4.675H13.021C12.928 4.675 12.845 4.705 12.759 4.807C12.664 4.89962 12.5936 5.01439 12.554 5.141C12.5009 5.26806 12.4704 5.40344 12.464 5.541V5.56C12.466 5.649 12.472 5.739 12.484 5.827C12.291 5.76 12.046 5.692 11.877 5.625C11.8669 5.55876 11.8609 5.49197 11.859 5.425V5.405C11.8511 5.14102 11.9024 4.87862 12.009 4.637C12.091 4.417 12.241 4.231 12.439 4.104C12.6099 3.97444 12.8185 3.90521 13.033 3.905ZM10.071 3.964H10.107C10.249 3.964 10.377 4.012 10.506 4.099C10.652 4.228 10.77 4.387 10.85 4.564C10.94 4.763 10.99 4.964 11.003 5.231V5.235C11.01 5.369 11.009 5.435 11.001 5.501V5.581C10.971 5.588 10.945 5.599 10.918 5.605C10.766 5.66 10.644 5.74 10.525 5.805C10.537 5.715 10.538 5.625 10.528 5.538V5.523C10.516 5.39 10.488 5.323 10.446 5.19C10.4148 5.08808 10.3576 4.99606 10.28 4.923C10.2553 4.90059 10.2264 4.88337 10.195 4.87238C10.1636 4.86138 10.1302 4.85683 10.097 4.859H10.076C10.005 4.865 9.94599 4.899 9.88999 4.991C9.8262 5.06842 9.78471 5.16177 9.76999 5.261C9.74296 5.36879 9.73517 5.4805 9.74699 5.591V5.606C9.75899 5.741 9.78399 5.806 9.82699 5.94C9.87299 6.074 9.92499 6.14 9.99299 6.208C10.003 6.217 10.013 6.226 10.027 6.232C9.95699 6.289 9.90999 6.302 9.85099 6.368C9.81357 6.40108 9.76858 6.42444 9.71999 6.436C9.61604 6.31083 9.52397 6.17625 9.44499 6.034C9.35045 5.82386 9.2978 5.5973 9.28999 5.367C9.27343 5.14126 9.30059 4.91445 9.36999 4.699C9.42507 4.50252 9.52156 4.3201 9.65299 4.164C9.78099 4.031 9.91299 3.964 10.071 3.964ZM11.441 5.67C11.773 5.67 12.174 5.735 12.657 6.069C12.95 6.269 13.18 6.338 13.709 6.537H13.712C13.967 6.673 14.117 6.803 14.19 6.936V6.805C14.2259 6.87771 14.2459 6.95724 14.2486 7.03828C14.2514 7.11932 14.2368 7.20001 14.206 7.275C14.083 7.585 13.69 7.918 13.143 8.117V8.119C12.875 8.254 12.642 8.452 12.368 8.584C12.092 8.719 11.78 8.876 11.356 8.851C11.2037 8.85889 11.0513 8.8361 10.908 8.784C10.7972 8.72374 10.6897 8.65765 10.586 8.586C10.391 8.451 10.223 8.254 9.97399 8.121V8.116H9.96899C9.56899 7.87 9.35299 7.604 9.28299 7.406C9.21299 7.138 9.27799 6.936 9.47599 6.806C9.69999 6.671 9.85599 6.535 9.95899 6.47C10.063 6.396 10.102 6.368 10.135 6.339H10.137V6.336C10.306 6.134 10.573 5.866 10.976 5.735C11.115 5.699 11.27 5.67 11.442 5.67H11.441ZM14.241 7.812C14.599 9.229 15.437 11.287 15.976 12.285C16.262 12.819 16.831 13.944 17.078 15.309C17.234 15.304 17.408 15.327 17.591 15.373C18.237 13.702 17.045 11.906 16.502 11.407C16.282 11.207 16.27 11.072 16.379 11.072C16.969 11.606 17.744 12.644 18.025 13.829C18.155 14.364 18.185 14.933 18.046 15.499C18.113 15.527 18.181 15.559 18.251 15.566C19.283 16.1 19.664 16.504 19.481 17.103V17.06C19.421 17.057 19.361 17.06 19.301 17.06H19.285C19.436 16.593 19.103 16.235 18.22 15.836C17.305 15.436 16.574 15.5 16.45 16.301C16.442 16.344 16.437 16.367 16.432 16.436C16.364 16.459 16.293 16.489 16.223 16.5C15.793 16.768 15.561 17.169 15.43 17.687C15.3 18.22 15.26 18.843 15.225 19.556V19.559C15.205 19.893 15.055 20.397 14.906 20.909C13.406 21.981 11.326 22.447 9.55799 21.243C9.44704 21.0491 9.31196 20.87 9.15599 20.71C9.08146 20.5859 8.98876 20.4736 8.88099 20.377C9.06299 20.377 9.21899 20.347 9.34599 20.31C9.48979 20.2433 9.60228 20.1236 9.65999 19.976C9.76799 19.709 9.65999 19.279 9.31499 18.813C8.96999 18.346 8.38399 17.818 7.52699 17.292C6.89699 16.892 6.54099 16.422 6.37699 15.896C6.21199 15.362 6.23399 14.811 6.36199 14.251C6.60699 13.181 7.23499 12.141 7.63599 11.488C7.74299 11.423 7.67299 11.623 7.22799 12.462C6.83199 13.213 6.08799 14.959 7.10599 16.316C7.14444 15.3259 7.36372 14.3512 7.75299 13.44C8.31699 12.162 9.49599 9.936 9.58899 8.172C9.63699 8.208 9.80599 8.307 9.87799 8.374C10.096 8.507 10.258 8.707 10.468 8.839C10.678 9.04 10.945 9.174 11.344 9.174C11.383 9.177 11.419 9.18 11.454 9.18C11.866 9.18 12.184 9.046 12.451 8.912C12.741 8.778 12.971 8.578 13.191 8.512H13.196C13.663 8.377 14.031 8.11 14.24 7.812H14.241ZM16.426 16.77C16.463 17.37 16.769 18.015 17.308 18.147C17.896 18.281 18.742 17.814 19.099 17.382L19.31 17.372C19.625 17.365 19.887 17.382 20.157 17.64L20.16 17.643C20.368 17.842 20.465 18.173 20.551 18.519C20.636 18.919 20.705 19.299 20.96 19.585C21.446 20.112 21.605 20.491 21.596 20.725L21.599 20.718V20.736L21.596 20.725C21.581 20.987 21.411 21.12 21.098 21.319C20.468 21.72 19.352 22.031 18.641 22.889C18.023 23.626 17.271 24.029 16.605 24.08C15.941 24.133 15.368 23.88 15.031 23.182L15.026 23.179C14.816 22.779 14.906 22.154 15.082 21.489C15.258 20.821 15.51 20.145 15.545 19.592C15.582 18.878 15.621 18.257 15.74 17.778C15.86 17.313 16.048 16.981 16.381 16.794L16.426 16.772V16.77ZM5.61199 16.819H5.62199C5.67499 16.819 5.72699 16.824 5.77899 16.833C6.15499 16.888 6.48499 17.166 6.80199 17.585L7.71199 19.249L7.71499 19.252C7.95799 19.785 8.46899 20.316 8.90399 20.889C9.33799 21.487 9.67399 22.02 9.63299 22.459V22.465C9.57599 23.209 9.15299 23.613 8.50799 23.759C7.86299 23.894 6.98799 23.761 6.11299 23.295C5.14499 22.759 3.99499 22.826 3.25599 22.693C2.88699 22.627 2.64599 22.493 2.53299 22.293C2.42299 22.093 2.41999 21.691 2.65599 21.063V21.059L2.65799 21.056C2.77499 20.722 2.68799 20.304 2.63099 19.938C2.57599 19.537 2.54799 19.228 2.67399 18.998C2.83399 18.664 3.06999 18.598 3.36399 18.465C3.65799 18.33 4.00399 18.263 4.27899 17.995H4.28099V17.993C4.53699 17.725 4.72599 17.392 4.94899 17.155C5.13899 16.954 5.32899 16.819 5.61199 16.819ZM12.771 7.745C12.336 7.946 11.826 8.28 11.283 8.28C10.741 8.28 10.313 8.013 10.003 7.814C9.84899 7.68 9.72299 7.546 9.62999 7.479C9.46599 7.345 9.48599 7.146 9.55599 7.146C9.66499 7.162 9.68499 7.28 9.75499 7.346C9.85099 7.412 9.96999 7.546 10.115 7.679C10.407 7.879 10.795 8.146 11.282 8.146C11.767 8.146 12.335 7.879 12.68 7.68C12.875 7.545 13.125 7.346 13.328 7.213C13.484 7.077 13.477 6.946 13.607 6.946C13.735 6.962 13.641 7.08 13.46 7.278C13.2382 7.44575 13.0079 7.60195 12.77 7.746L12.771 7.745ZM11.689 6.162V6.14C11.683 6.12 11.702 6.098 11.718 6.09C11.792 6.047 11.898 6.063 11.978 6.094C12.041 6.094 12.138 6.161 12.128 6.229C12.122 6.278 12.043 6.295 11.993 6.295C11.938 6.295 11.901 6.252 11.852 6.227C11.8 6.209 11.706 6.219 11.689 6.162ZM11.138 6.162C11.118 6.22 11.025 6.211 10.972 6.228C10.925 6.253 10.886 6.296 10.832 6.296C10.782 6.296 10.702 6.276 10.696 6.228C10.686 6.162 10.784 6.095 10.846 6.095C10.926 6.064 11.03 6.048 11.105 6.09C11.124 6.099 11.141 6.12 11.135 6.14V6.16H11.138V6.162Z" fill="#FCC624"/>
</g>
<defs>
<clipPath id="clip0_5_1415">
<rect width="24" height="24" fill="white" transform="translate(0 0.5)"/>
</clipPath>
</defs>
</svg>
