<svg width="24" height="24" viewBox="0 0 24 25" fill="none" xmlns="http://www.w3.org/2000/svg">
<g clip-path="url(#clip0_5_1419)">
<path d="M0.790001 7.62012H23.21C23.646 7.62012 24 7.97512 24 8.41212V16.5881C24 17.0241 23.646 17.3781 23.21 17.3781H0.790001C0.58048 17.3781 0.37954 17.2949 0.231386 17.1467C0.0832325 16.9986 6.32969e-07 16.7976 6.32969e-07 16.5881V8.41212C-0.000130795 8.30829 0.0202062 8.20545 0.0598485 8.10949C0.0994909 8.01353 0.157661 7.92632 0.231032 7.85286C0.304404 7.77939 0.391537 7.72111 0.48745 7.68135C0.583362 7.64158 0.686172 7.62012 0.790001 7.62012ZM3.297 15.2251V12.1031L5.187 13.9931L7.12 12.0601V15.1821H8.175V9.51212L5.185 12.5021L2.24 9.55612V15.2261H3.295L3.297 15.2251ZM11.737 13.3801L10.263 11.9071L9.517 12.6531L12.264 15.4001L15.009 12.6531L14.263 11.9071L12.79 13.3801V9.38012H11.736V13.3801H11.737ZM21.778 14.3671L19.603 12.1921L21.823 9.97212L21.077 9.22612L18.857 11.4461L16.637 9.22612L15.89 9.97212L18.11 12.1921L15.934 14.3691L16.68 15.1151L18.857 12.9381L21.033 15.1131L21.778 14.3671Z" fill="#1B1F24"/>
</g>
<defs>
<clipPath id="clip0_5_1419">
<rect width="24" height="24" fill="white" transform="translate(0 0.5)"/>
</clipPath>
</defs>
</svg>
