<svg width="24" height="24" viewBox="0 0 24 25" fill="none" xmlns="http://www.w3.org/2000/svg">
<g clip-path="url(#clip0_5_1417)">
<path d="M12 0.5C5.377 0.5 0 5.877 0 12.5C0 19.123 5.377 24.5 12 24.5C18.623 24.5 24 19.123 24 12.5C24 5.877 18.623 0.5 12 0.5ZM12 1.25C14.871 1.25 17.482 2.332 19.469 4.1H4.53C6.58442 2.26309 9.24412 1.24834 12 1.25ZM4.814 4.85H19.186L12 19.223L4.814 4.85ZM3.6 5.03V19.97C1.76309 17.9156 0.748344 15.2559 0.75 12.5C0.75 9.63 1.832 7.019 3.6 5.032V5.03ZM20.4 5.03C22.2369 7.08442 23.2517 9.74412 23.25 12.5C23.25 15.371 22.168 17.982 20.4 19.969V5.03ZM4.35 5.6L11.625 20.15H4.35V5.6ZM19.65 5.6V20.15H12.375L19.65 5.6ZM4.533 20.9H19.469C17.4148 22.7367 14.7555 23.7514 12 23.75C9.24481 23.7512 6.58691 22.7365 4.533 20.9Z" fill="#757575"/>
</g>
<defs>
<clipPath id="clip0_5_1417">
<rect width="24" height="24" fill="white" transform="translate(0 0.5)"/>
</clipPath>
</defs>
</svg>
