<svg width="24" height="24" viewBox="0 0 24 25" fill="none" xmlns="http://www.w3.org/2000/svg">
<g clip-path="url(#clip0_5_1421)">
<path d="M20.229 16.293C20.3302 16.2347 20.4144 16.1509 20.473 16.05C20.5317 15.9488 20.5628 15.8339 20.563 15.717L20.575 11.859C20.5752 11.742 20.6063 11.6271 20.665 11.526C20.7239 11.4248 20.8084 11.341 20.91 11.283L23 10.08C23.1014 10.022 23.2162 9.99163 23.333 9.99196C23.45 9.99224 23.5648 10.0233 23.666 10.082C23.7672 10.1402 23.8513 10.224 23.91 10.325C23.9684 10.4262 23.9991 10.5411 23.999 10.658V17.672C23.9989 17.7892 23.9679 17.9044 23.9091 18.0059C23.8503 18.1074 23.7657 18.1916 23.664 18.25L15.771 22.784C15.6702 22.8417 15.5561 22.872 15.44 22.872C15.3239 22.872 15.2098 22.8417 15.109 22.784L8.915 19.242C8.81294 19.1837 8.72808 19.0995 8.669 18.998C8.60998 18.8962 8.57893 18.7806 8.579 18.663V15.126C8.579 15.122 8.583 15.12 8.587 15.122C8.591 15.124 8.595 15.122 8.595 15.117V15.113C8.595 15.11 8.597 15.108 8.599 15.106L13.701 12.176C13.705 12.173 13.703 12.166 13.698 12.166C13.6972 12.166 13.6965 12.1658 13.6958 12.1654C13.6951 12.1651 13.6945 12.1646 13.694 12.164C13.6936 12.1634 13.6932 12.1628 13.6931 12.1621C13.6929 12.1614 13.6929 12.1607 13.693 12.16L13.703 8.69296C13.7035 8.57552 13.6729 8.46005 13.6144 8.3582C13.556 8.25636 13.4717 8.17176 13.37 8.11296C13.2686 8.05442 13.1536 8.0236 13.0365 8.0236C12.9194 8.0236 12.8044 8.05442 12.703 8.11296L8.912 10.299C8.81084 10.3571 8.69619 10.3877 8.5795 10.3877C8.46281 10.3877 8.34816 10.3571 8.247 10.299L4.443 8.10896C4.34169 8.05081 4.22689 8.0203 4.11008 8.02046C3.99327 8.02062 3.87855 8.05145 3.7774 8.10988C3.67625 8.1683 3.59222 8.25226 3.53371 8.35336C3.4752 8.45446 3.44426 8.56915 3.444 8.68596V14.953C3.44404 15.0698 3.4134 15.1846 3.35513 15.2858C3.29687 15.3871 3.21303 15.4713 3.112 15.53C3.01113 15.5885 2.89664 15.6195 2.78 15.62C2.66321 15.6203 2.54838 15.5899 2.447 15.532L0.336001 14.325C0.233939 14.2667 0.149076 14.1825 0.0900015 14.081C0.0308111 13.9789 -0.000245003 13.8629 1.45555e-06 13.745L0.0190015 2.79196C0.0193641 2.67529 0.0503193 2.56077 0.108777 2.45981C0.167235 2.35885 0.251151 2.27499 0.352149 2.21659C0.453147 2.1582 0.567694 2.12732 0.684357 2.12703C0.80102 2.12674 0.915717 2.15706 1.017 2.21496L8.247 6.36796C8.34816 6.42613 8.46281 6.45674 8.5795 6.45674C8.69619 6.45674 8.81084 6.42613 8.912 6.36796L16.14 2.21496C16.2414 2.15693 16.3562 2.12658 16.473 2.12696C16.59 2.12719 16.7048 2.15823 16.806 2.21696C16.9073 2.27548 16.9915 2.35963 17.05 2.46096C17.108 2.56234 17.1383 2.67717 17.138 2.79396V13.75C17.138 13.867 17.108 13.982 17.049 14.084C16.9902 14.1854 16.9057 14.2696 16.804 14.328L13.019 16.508C12.9172 16.5666 12.8327 16.6511 12.774 16.753C12.7155 16.8545 12.6848 16.9697 12.685 17.087C12.6851 17.2043 12.7162 17.3195 12.775 17.421C12.8343 17.5227 12.9195 17.6069 13.022 17.665L15.11 18.854C15.2106 18.911 15.3243 18.9409 15.44 18.941C15.5565 18.9408 15.671 18.9101 15.772 18.852L20.229 16.292V16.293ZM20.667 6.46496C20.6669 6.58261 20.6979 6.6982 20.757 6.79996C20.8166 6.90183 20.9022 6.98603 21.005 7.04396C21.1075 7.10185 21.2234 7.1316 21.3411 7.13019C21.4588 7.12879 21.574 7.09628 21.675 7.03596L23.676 5.83596C23.7747 5.77679 23.8563 5.69307 23.913 5.59296C23.97 5.49266 23.9999 5.3793 24 5.26396V2.81996C23.9998 2.70222 23.9684 2.58663 23.909 2.48496C23.8495 2.38327 23.7641 2.29917 23.6615 2.2412C23.5589 2.18324 23.4428 2.15348 23.325 2.15496C23.2073 2.15628 23.0921 2.18871 22.991 2.24896L20.991 3.44896C20.892 3.50799 20.81 3.59172 20.753 3.69196C20.6964 3.79237 20.6668 3.90571 20.667 4.02096V6.46496Z" fill="#007FFF"/>
</g>
<defs>
<clipPath id="clip0_5_1421">
<rect width="24" height="24" fill="white" transform="translate(0 0.5)"/>
</clipPath>
</defs>
</svg>
