<svg width="24" height="24" viewBox="0 0 24 25" fill="none" xmlns="http://www.w3.org/2000/svg">
<path d="M16.405 6.00101C16.29 6.00101 16.212 6.01501 16.131 6.03401V6.04701H16.145C16.199 6.15101 16.291 6.22701 16.359 6.32001C16.413 6.42701 16.459 6.53401 16.513 6.64001L16.527 6.62501C16.621 6.55901 16.667 6.45301 16.667 6.29201C16.627 6.24501 16.621 6.19801 16.587 6.15201C16.547 6.08501 16.461 6.05201 16.407 5.99901L16.405 6.00101ZM5.77 19.195H4.843C4.81693 17.7218 4.72685 16.2504 4.573 14.785H4.565L3.155 19.195H2.45L1.05 14.785H1.04C0.930493 16.2527 0.865464 17.7234 0.845 19.195H0C0.055 17.229 0.192 15.385 0.41 13.665H1.56L2.895 17.729H2.903L4.25 13.665H5.345C5.587 15.68 5.729 17.525 5.773 19.195H5.77ZM9.787 15.115C9.409 17.16 8.911 18.648 8.295 19.575C7.813 20.291 7.285 20.648 6.712 20.648C6.559 20.648 6.372 20.602 6.146 20.51V20.016C6.256 20.033 6.386 20.042 6.532 20.042C6.8 20.042 7.015 19.967 7.179 19.82C7.376 19.64 7.474 19.438 7.474 19.215C7.474 19.06 7.397 18.745 7.244 18.271L6.23 15.115H7.14L7.867 17.475C8.031 18.011 8.1 18.385 8.072 18.598C8.472 17.534 8.75 16.371 8.907 15.115H9.787ZM22.112 19.195H19.482V13.665H20.367V18.515H22.112V19.195ZM18.792 19.33L17.776 18.83C17.866 18.754 17.953 18.672 18.031 18.58C18.464 18.074 18.679 17.322 18.679 16.327C18.679 14.497 17.961 13.581 16.524 13.581C15.82 13.581 15.27 13.813 14.874 14.278C14.444 14.786 14.228 15.534 14.228 16.523C14.228 17.495 14.418 18.209 14.802 18.663C15.152 19.073 15.679 19.278 16.385 19.278C16.649 19.278 16.891 19.245 17.11 19.18L18.435 19.952L18.795 19.33H18.792ZM15.5 18.088C15.275 17.728 15.163 17.148 15.163 16.352C15.163 14.959 15.587 14.262 16.433 14.262C16.876 14.262 17.203 14.429 17.41 14.762C17.634 15.124 17.746 15.698 17.746 16.485C17.746 17.889 17.322 18.593 16.476 18.593C16.031 18.593 15.706 18.426 15.498 18.093L15.5 18.088ZM13.842 17.663C13.842 18.133 13.67 18.519 13.326 18.819C12.982 19.119 12.523 19.269 11.942 19.269C11.399 19.269 10.878 19.097 10.369 18.754L10.606 18.278C11.044 18.498 11.439 18.606 11.796 18.606C12.128 18.606 12.389 18.533 12.579 18.386C12.674 18.3144 12.7506 18.2214 12.8028 18.1145C12.8549 18.0076 12.881 17.8899 12.879 17.771C12.879 17.441 12.649 17.161 12.231 16.926C11.843 16.713 11.068 16.269 11.068 16.269C10.646 15.962 10.436 15.633 10.436 15.092C10.436 14.642 10.593 14.282 10.906 14.007C11.221 13.729 11.626 13.592 12.126 13.592C12.638 13.592 13.106 13.728 13.526 14.002L13.313 14.478C12.9774 14.3306 12.6155 14.2524 12.249 14.248C11.966 14.248 11.747 14.316 11.595 14.454C11.5179 14.5179 11.4557 14.5979 11.4128 14.6885C11.37 14.779 11.3475 14.8778 11.347 14.978C11.347 15.306 11.581 15.588 12.013 15.828C12.406 16.043 13.2 16.498 13.2 16.498C13.633 16.803 13.848 17.128 13.848 17.666L13.842 17.663ZM23.224 11.811C22.689 11.797 22.274 11.851 21.927 11.999C21.827 12.039 21.667 12.039 21.653 12.166C21.708 12.219 21.716 12.306 21.763 12.38C21.843 12.514 21.981 12.693 22.109 12.787C22.249 12.897 22.389 13.003 22.536 13.097C22.796 13.257 23.091 13.352 23.346 13.513C23.491 13.607 23.639 13.726 23.786 13.826C23.859 13.876 23.906 13.966 24 13.998V13.978C23.954 13.918 23.94 13.831 23.895 13.764C23.828 13.697 23.761 13.637 23.695 13.571C23.4987 13.3123 23.2644 13.0847 23 12.896C22.786 12.75 22.318 12.546 22.23 12.301L22.217 12.287C22.363 12.274 22.537 12.221 22.677 12.181C22.904 12.121 23.112 12.134 23.347 12.075C23.453 12.048 23.56 12.015 23.667 11.981V11.921C23.547 11.801 23.457 11.638 23.333 11.526C22.9869 11.2235 22.6178 10.9483 22.229 10.703C22.019 10.569 21.753 10.483 21.532 10.369C21.452 10.329 21.318 10.309 21.272 10.242C21.152 10.096 21.082 9.90201 20.997 9.72801C20.8006 9.34709 20.6182 8.95917 20.45 8.56501C20.33 8.30301 20.257 8.04201 20.11 7.80201C19.42 6.66501 18.673 5.97601 17.524 5.30201C17.277 5.16201 16.981 5.10201 16.668 5.02801C16.501 5.02001 16.334 5.00801 16.168 5.00101C16.058 4.95401 15.952 4.82701 15.858 4.76601C15.478 4.52601 14.494 4.00601 14.214 4.69401C14.034 5.12801 14.481 5.55601 14.636 5.77601C14.751 5.92901 14.896 6.10401 14.976 6.27601C15.023 6.39201 15.036 6.51101 15.083 6.63201C15.189 6.92601 15.29 7.25401 15.43 7.52901C15.503 7.66901 15.583 7.81601 15.677 7.94201C15.731 8.01501 15.823 8.04901 15.844 8.16901C15.75 8.30501 15.744 8.50301 15.69 8.66901C15.45 9.42601 15.544 10.362 15.884 10.919C15.991 11.085 16.246 11.453 16.587 11.312C16.887 11.192 16.821 10.812 16.907 10.477C16.927 10.397 16.914 10.344 16.955 10.29V10.305C17.049 10.493 17.143 10.672 17.229 10.86C17.435 11.188 17.795 11.528 18.096 11.755C18.256 11.875 18.383 12.083 18.583 12.157V12.137H18.568C18.525 12.079 18.468 12.051 18.414 12.004C18.2872 11.8799 18.1702 11.7462 18.064 11.604C17.7822 11.219 17.5324 10.8117 17.317 10.386C17.207 10.176 17.115 9.95001 17.027 9.74301C16.987 9.66301 16.987 9.54301 16.92 9.50301C16.82 9.64901 16.673 9.77601 16.6 9.95601C16.473 10.244 16.46 10.598 16.412 10.966C16.385 10.973 16.398 10.966 16.385 10.98C16.171 10.928 16.098 10.706 16.018 10.52C15.818 10.045 15.785 9.28201 15.958 8.73501C16.005 8.59501 16.205 8.15301 16.125 8.01901C16.083 7.89201 15.951 7.81901 15.878 7.71601C15.7841 7.58195 15.7037 7.43892 15.638 7.28901C15.478 6.91501 15.398 6.50101 15.224 6.12701C15.144 5.95401 15.004 5.77301 14.89 5.61401C14.763 5.43401 14.623 5.30701 14.522 5.09401C14.489 5.02101 14.442 4.90001 14.495 4.82001C14.509 4.76601 14.537 4.74501 14.589 4.73001C14.677 4.65801 14.924 4.75201 15.011 4.79201C15.258 4.89201 15.466 4.98601 15.673 5.12601C15.767 5.19201 15.868 5.31901 15.988 5.35201H16.128C16.342 5.39901 16.583 5.36601 16.783 5.42501C17.138 5.53901 17.458 5.70501 17.745 5.88501C18.6293 6.44992 19.3486 7.23856 19.83 8.17101C19.91 8.32501 19.945 8.46601 20.018 8.62601C20.158 8.95601 20.331 9.28901 20.473 9.60801C20.613 9.92301 20.748 10.244 20.949 10.505C21.049 10.645 21.451 10.718 21.631 10.791C21.764 10.851 21.971 10.906 22.091 10.979C22.321 11.119 22.545 11.279 22.761 11.433C22.871 11.509 23.204 11.676 23.224 11.811Z" fill="#4479A1"/>
</svg>
