<svg width="24" height="24" viewBox="0 0 24 25" fill="none" xmlns="http://www.w3.org/2000/svg">
<g clip-path="url(#clip0_5_1477)">
<rect y="0.5" width="24" height="24" rx="12" fill="#F9F9F9"/>
<path d="M11.5723 0.5C11.396 0.5 11.2625 0.5013 11.2139 0.5067C11.1623 0.512 10.998 0.5277 10.8503 0.5395C7.4415 0.8468 4.2486 2.6858 2.2263 5.5123C1.1002 7.084 0.38 8.8666 0.108 10.755C0.0118 11.414 0 11.6087 0 12.5024C0 13.3961 0.012 13.5908 0.108 14.25C0.76 18.756 3.9671 22.5419 8.3167 23.9445C9.0956 24.1956 9.9167 24.3668 10.8504 24.47C11.214 24.51 12.7858 24.51 13.1494 24.47C14.7611 24.2917 16.1266 23.893 17.4731 23.2057C17.6796 23.1001 17.7195 23.072 17.6914 23.0484C17.6726 23.0345 16.7927 21.8546 15.7371 20.4284L13.8181 17.8364L11.4134 14.2781C10.0903 12.3217 9.0017 10.7221 8.9923 10.7221C8.9829 10.7195 8.9736 12.3008 8.9688 14.2311C8.9621 17.6113 8.9595 17.7473 8.9172 17.8271C8.8562 17.9421 8.8092 17.9889 8.7108 18.0405C8.6358 18.0779 8.57 18.085 8.2158 18.085H7.8098L7.702 18.017C7.63515 17.9751 7.58084 17.916 7.5448 17.8458L7.4955 17.7402L7.5008 13.0372L7.5075 8.3318L7.5801 8.2403C7.6177 8.191 7.6975 8.1278 7.7537 8.0973C7.8499 8.0503 7.8875 8.0456 8.2933 8.0456C8.772 8.0456 8.8517 8.0643 8.976 8.2003C9.0113 8.238 10.3133 10.199 11.871 12.5611C13.4482 14.9519 15.0263 17.3421 16.6054 19.7317L18.5056 22.6099L18.6016 22.5466C19.4534 21.993 20.3541 21.2048 21.0673 20.3839C22.5852 18.641 23.5636 16.5159 23.892 14.2499C23.9881 13.5908 23.9998 13.3959 23.9998 12.5024C23.9998 11.6087 23.9878 11.414 23.892 10.7548C23.2398 6.2488 20.0328 2.4629 15.6833 1.0603C14.9161 0.8116 14.0997 0.6403 13.1848 0.5371C13.0158 0.5195 12.1011 0.5004 11.5723 0.5ZM15.6408 7.717C15.9881 7.717 16.049 7.7223 16.1265 7.764C16.2392 7.8202 16.3305 7.9282 16.3635 8.0407C16.3821 8.1017 16.3869 9.406 16.3821 12.3451L16.3754 16.5626L15.6318 15.4226L14.8857 14.2826V11.2166C14.8857 9.2346 14.895 8.1203 14.9091 8.0664C14.9466 7.9351 15.0287 7.8318 15.1414 7.7709C15.2375 7.7215 15.2724 7.717 15.6408 7.717Z" fill="black"/>
</g>
<rect x="0.5" y="1" width="23" height="23" rx="11.5" stroke="black" stroke-opacity="0.1"/>
<defs>
<clipPath id="clip0_5_1477">
<rect y="0.5" width="24" height="24" rx="12" fill="white"/>
</clipPath>
</defs>
</svg>
