<svg width="24" height="24" viewBox="0 0 24 25" fill="none" xmlns="http://www.w3.org/2000/svg">
<g clip-path="url(#clip0_5_1425)">
<path d="M11.998 24.5C11.677 24.5 11.357 24.416 11.076 24.253L8.14003 22.516C7.70203 22.271 7.91603 22.184 8.06003 22.133C8.64503 21.93 8.76303 21.883 9.38803 21.529C9.45303 21.492 9.53903 21.506 9.60603 21.546L11.862 22.885C11.944 22.93 12.059 22.93 12.134 22.885L20.929 17.809C21.011 17.762 21.063 17.668 21.063 17.571V7.42101C21.063 7.32201 21.01 7.22901 20.926 7.17901L12.135 2.10701C12.054 2.06001 11.946 2.06001 11.864 2.10701L3.07503 7.18001C2.99003 7.22901 2.93603 7.32501 2.93603 7.42101V17.571C2.93603 17.668 2.99003 17.76 3.07503 17.806L5.48403 19.198C6.79103 19.852 7.59203 19.082 7.59203 18.308V8.28701C7.59203 8.14501 7.70603 8.03401 7.84803 8.03401H8.96303C9.10203 8.03401 9.21803 8.14601 9.21803 8.28701V18.308C9.21803 20.053 8.26803 21.053 6.61403 21.053C6.10603 21.053 5.70503 21.053 4.58803 20.502L2.28003 19.175C1.71003 18.846 1.35803 18.23 1.35803 17.571V7.42101C1.35803 6.76201 1.71103 6.14601 2.28003 5.81801L11.075 0.736006C11.632 0.421006 12.371 0.421006 12.923 0.736006L21.717 5.81801C22.287 6.14701 22.641 6.76201 22.641 7.42101V17.571C22.641 18.23 22.287 18.844 21.717 19.175L12.923 24.253C12.643 24.416 12.324 24.5 11.998 24.5ZM19.099 14.493C19.099 12.593 17.815 12.087 15.112 11.73C12.381 11.369 12.103 11.182 12.103 10.543C12.103 10.015 12.338 9.31001 14.361 9.31001C16.168 9.31001 16.834 9.69901 17.108 10.917C17.132 11.032 17.237 11.116 17.355 11.116H18.496C18.567 11.116 18.634 11.085 18.682 11.035C18.73 10.981 18.756 10.912 18.749 10.839C18.572 8.741 17.178 7.76301 14.361 7.76301C11.853 7.76301 10.357 8.82101 10.357 10.596C10.357 12.521 11.845 13.053 14.252 13.291C17.132 13.573 17.355 13.994 17.355 14.56C17.355 15.543 16.566 15.962 14.713 15.962C12.386 15.962 11.874 15.378 11.702 14.22C11.682 14.096 11.576 14.005 11.449 14.005H10.312C10.171 14.005 10.058 14.117 10.058 14.258C10.058 15.74 10.864 17.506 14.713 17.506C17.501 17.507 19.099 16.41 19.099 14.493Z" fill="#339933"/>
</g>
<defs>
<clipPath id="clip0_5_1425">
<rect width="24" height="24" fill="white" transform="translate(0 0.5)"/>
</clipPath>
</defs>
</svg>
