<svg width="24" height="24" viewBox="0 0 24 25" fill="none" xmlns="http://www.w3.org/2000/svg">
<g clip-path="url(#clip0_5_1379)">
<path d="M9.85 8.92005C9.48 8.77005 9.08 8.71005 8.67 8.72005C8.41 8.72005 8.18 8.72005 7.99 8.73005C7.79 8.72005 7.65 8.73005 7.58 8.74005V12.1C7.72 12.11 7.85 12.12 7.97 12.12H8.5C8.89 12.12 9.28 12.06 9.65 11.94C9.97 11.85 10.25 11.66 10.47 11.41C10.68 11.16 10.78 10.82 10.78 10.38C10.79 10.07 10.71 9.76005 10.55 9.49005C10.38 9.23005 10.14 9.03005 9.85 8.92005ZM19.75 0.800049H4.25C1.9 0.800049 0 2.70005 0 5.05005V19.949C0 22.299 1.9 24.199 4.25 24.199H19.75C22.1 24.199 24 22.299 24 19.949V5.05005C24 2.70005 22.1 0.800049 19.75 0.800049ZM12.359 12.45C11.96 13.01 11.4 13.43 10.75 13.67C10.07 13.92 9.32 14.01 8.5 14.01C8.26 14.01 8.1 14.01 8 14C7.9 13.99 7.76 13.99 7.57 13.99V17.199C7.58 17.269 7.53 17.33 7.46 17.34H5.52C5.44 17.34 5.4 17.299 5.4 17.209V6.92005C5.4 6.85005 5.43 6.81005 5.5 6.81005C5.67 6.81005 5.83 6.81005 6.06 6.80005C6.3 6.79005 6.55 6.79005 6.82 6.78005C7.09 6.77005 7.38 6.77005 7.69 6.76005C8 6.75005 8.3 6.75005 8.6 6.75005C9.42 6.75005 10.1 6.85005 10.66 7.06005C11.16 7.23005 11.62 7.51005 12 7.88005C12.32 8.20005 12.57 8.59005 12.73 9.02005C12.879 9.44005 12.959 9.87005 12.959 10.32C12.96 11.18 12.76 11.89 12.359 12.45ZM19.45 16.34C19.17 16.74 18.779 17.0491 18.33 17.2311C17.84 17.4401 17.24 17.549 16.519 17.549C16.06 17.549 15.609 17.51 15.16 17.42C14.81 17.359 14.46 17.25 14.14 17.1C14.07 17.0611 14.019 16.991 14.029 16.911V15.171C14.029 15.142 14.04 15.101 14.07 15.081C14.099 15.061 14.13 15.071 14.16 15.091C14.55 15.321 14.96 15.482 15.4 15.581C15.779 15.681 16.179 15.731 16.58 15.731C16.96 15.731 17.23 15.68 17.41 15.59C17.57 15.52 17.68 15.35 17.68 15.17C17.68 15.029 17.6 14.9 17.44 14.77C17.28 14.641 16.951 14.491 16.461 14.299C15.951 14.119 15.482 13.879 15.041 13.58C14.731 13.359 14.472 13.07 14.28 12.73C14.121 12.41 14.041 12.06 14.051 11.709C14.051 11.279 14.171 10.869 14.392 10.499C14.642 10.099 15.011 9.77905 15.441 9.57905C15.91 9.34005 16.5 9.23005 17.21 9.23005C17.62 9.23005 18.04 9.26005 18.45 9.32005C18.75 9.36005 19.04 9.44005 19.31 9.55005C19.349 9.56005 19.39 9.60005 19.41 9.64005C19.42 9.68005 19.43 9.72005 19.43 9.76005V11.39C19.43 11.43 19.41 11.47 19.38 11.49C19.29 11.51 19.24 11.51 19.2 11.49C18.9 11.33 18.58 11.22 18.24 11.15C17.87 11.07 17.5 11.02 17.12 11.02C16.92 11.01 16.71 11.04 16.519 11.09C16.39 11.12 16.279 11.19 16.209 11.29C16.159 11.37 16.129 11.47 16.129 11.56C16.129 11.65 16.169 11.74 16.23 11.82C16.32 11.93 16.439 12.02 16.57 12.09C16.799 12.21 17.04 12.32 17.279 12.42C17.82 12.6 18.34 12.85 18.82 13.15C19.15 13.359 19.42 13.64 19.609 13.98C19.769 14.298 19.849 14.65 19.839 15.009C19.85 15.48 19.71 15.949 19.45 16.34Z" fill="#31A8FF"/>
</g>
<defs>
<clipPath id="clip0_5_1379">
<rect width="24" height="24" fill="white" transform="translate(0 0.5)"/>
</clipPath>
</defs>
</svg>
