<svg width="24" height="24" viewBox="0 0 24 24" fill="none" xmlns="http://www.w3.org/2000/svg">
<path d="M4.34411 0C4.58211 4.792 7.60011 7.056 10.5961 7.376C10.7611 5.684 6.27711 1.776 6.27711 1.776C6.26911 1.765 6.28611 1.751 6.29611 1.762C6.29611 1.762 10.9441 5.772 11.7191 7.407C14.4811 7.257 16.9151 5.46 16.7191 2.495C16.7191 2.495 12.5991 1.882 11.7191 7.113C11.4801 2.753 8.99311 0 4.34411 0ZM12.0001 7.682V7.684C11.0281 7.68673 10.0966 8.0739 9.40911 8.761L4.94011 13.227C4.5572 13.6102 4.26356 14.0733 4.08011 14.583C3.92039 14.982 3.83989 15.4082 3.84311 15.838C3.84176 16.3229 3.93621 16.8032 4.12103 17.2514C4.30586 17.6997 4.57741 18.107 4.92011 18.45L9.38411 22.916C9.9891 23.5193 10.7847 23.8939 11.6351 23.976L11.6371 23.977C11.7301 23.987 11.8241 23.992 11.9171 23.994L11.8171 23.986C11.8771 23.989 11.9341 23.995 11.9941 23.995L11.9171 23.994L12.0001 24L11.9961 23.995C12.4806 23.9961 12.9606 23.9016 13.4085 23.7168C13.8564 23.532 14.2634 23.2605 14.6061 22.918L19.0751 18.453C19.5899 17.9371 19.94 17.28 20.0811 16.565L20.0931 16.502C20.1254 16.3233 20.1445 16.1425 20.1501 15.961L20.1531 15.9C20.1531 15.883 20.1561 15.85 20.1571 15.84H20.1551C20.1557 15.356 20.0609 14.8766 19.8761 14.4293C19.6913 13.982 19.4201 13.5755 19.0781 13.233L14.6121 8.765C14.1761 8.33053 13.6385 8.01188 13.0481 7.838L12.9781 7.818C12.6705 7.72976 12.3521 7.68499 12.0321 7.685L12.0001 7.682ZM15.1651 11.039C15.1881 12.787 13.8351 14.117 13.8351 15.845C13.9991 18.072 15.5681 19.052 17.1011 18.991C17.0661 18.994 17.0331 18.998 16.9971 19C15.1501 19.135 13.7881 17.674 11.9951 17.674C9.76511 17.838 8.78511 19.41 8.84811 20.944L8.84011 20.84C8.70711 18.993 10.1681 17.63 10.1681 15.838C9.99511 13.518 8.30111 12.554 6.70811 12.706C6.80811 12.695 6.91111 12.685 7.01811 12.679C8.86511 12.546 10.2271 14.007 12.0201 14.007C14.1021 13.852 15.0941 12.471 15.1651 11.039ZM4.34411 0C4.58211 4.792 7.60011 7.056 10.5961 7.376C10.7611 5.684 6.27711 1.776 6.27711 1.776C6.26911 1.765 6.28611 1.751 6.29611 1.762C6.29611 1.762 10.9441 5.772 11.7191 7.407C14.4811 7.257 16.9151 5.46 16.7191 2.495C16.7191 2.495 12.5991 1.882 11.7191 7.113C11.4801 2.753 8.99311 0 4.34411 0ZM12.0001 7.682V7.684C11.0281 7.68673 10.0966 8.0739 9.40911 8.761L4.94011 13.227C4.5572 13.6102 4.26356 14.0733 4.08011 14.583C3.92039 14.982 3.83989 15.4082 3.84311 15.838C3.84176 16.3229 3.93621 16.8032 4.12103 17.2514C4.30586 17.6997 4.57741 18.107 4.92011 18.45L9.38411 22.916C9.9891 23.5193 10.7847 23.8939 11.6351 23.976L11.6371 23.977C11.7301 23.987 11.8241 23.992 11.9171 23.994L11.8171 23.986C11.8771 23.989 11.9341 23.995 11.9941 23.995L11.9171 23.994L12.0001 24L11.9961 23.995C12.4806 23.9961 12.9606 23.9016 13.4085 23.7168C13.8564 23.532 14.2634 23.2605 14.6061 22.918L19.0751 18.453C19.5899 17.9371 19.94 17.28 20.0811 16.565L20.0931 16.502C20.1254 16.3233 20.1445 16.1425 20.1501 15.961L20.1531 15.9C20.1531 15.883 20.1561 15.85 20.1571 15.84H20.1551C20.1557 15.356 20.0609 14.8766 19.8761 14.4293C19.6913 13.982 19.4201 13.5755 19.0781 13.233L14.6121 8.765C14.1761 8.33053 13.6385 8.01188 13.0481 7.838L12.9781 7.818C12.6705 7.72976 12.3521 7.68499 12.0321 7.685L12.0001 7.682ZM15.1651 11.039C15.1881 12.787 13.8351 14.117 13.8351 15.845C13.9991 18.072 15.5681 19.052 17.1011 18.991C17.0661 18.994 17.0331 18.998 16.9971 19C15.1501 19.135 13.7881 17.674 11.9951 17.674C9.76511 17.838 8.78511 19.41 8.84811 20.944L8.84011 20.84C8.70711 18.993 10.1681 17.63 10.1681 15.838C9.99511 13.518 8.30111 12.554 6.70811 12.706C6.80811 12.695 6.91111 12.685 7.01811 12.679C8.86511 12.546 10.2271 14.007 12.0201 14.007C14.1021 13.852 15.0941 12.471 15.1651 11.039Z" fill="#96060C"/>
</svg>
