<svg width="24" height="24" viewBox="0 0 24 24" fill="none" xmlns="http://www.w3.org/2000/svg">
<path d="M12.504 0V1.023L12.494 1.008L6.38799 4.534H3.41699V5.285H8.77599V8.923H10.718V5.284H12.504V15.7C12.531 15.7 13.044 15.69 13.255 15.791V5.285H13.786V15.893C14.079 16.04 14.336 16.205 14.537 16.433V5.286H20.583V4.536H19.316L13.255 1.036V0H12.504ZM12.504 1.87V4.534H7.88899L12.504 1.87ZM13.255 1.901L17.815 4.534H13.255V1.901ZM9.14199 5.285H10.352V6.971H9.14199V5.285ZM4.40599 8.015V9.966H6.34799V8.016L4.40599 8.015ZM6.59599 8.015V9.966H8.53699V8.016L6.59599 8.015ZM4.40599 10.186V12.137H6.34799V10.187L4.40599 10.186ZM6.59599 10.186V12.137H8.53699V10.187L6.59599 10.186ZM8.77599 10.186V12.137H10.718V10.187L8.77599 10.186ZM4.35999 12.43C4.03698 12.9935 3.8667 13.6315 3.86599 14.281C3.86599 15.508 4.46999 16.589 5.38599 17.267C5.62499 17.203 5.86299 17.167 6.10999 17.157C6.20999 17.157 6.27499 17.167 6.37599 17.176C6.65999 15.985 7.75899 15.188 9.04099 15.188C9.76499 15.188 10.479 15.389 10.965 15.856C11.194 15.38 11.267 14.849 11.267 14.281C11.267 13.631 11.102 12.989 10.773 12.431L4.35999 12.43ZM9.18799 15.59C7.97799 15.59 6.96199 16.434 6.69599 17.56C6.60529 17.5433 6.51259 17.5402 6.42099 17.551C6.08477 17.5503 5.75172 17.6159 5.44086 17.7441C5.13001 17.8722 4.84745 18.0603 4.60933 18.2977C4.37122 18.5351 4.18221 18.817 4.05312 19.1275C3.92403 19.4379 3.85739 19.7708 3.85699 20.107C3.85839 20.4881 3.9447 20.8641 4.10965 21.2077C4.27459 21.5513 4.51402 21.8538 4.81053 22.0932C5.10704 22.3326 5.45318 22.503 5.82378 22.5918C6.19439 22.6807 6.58014 22.6859 6.95299 22.607C7.16959 23.0253 7.4966 23.3762 7.89854 23.6218C8.30047 23.8673 8.76198 23.9982 9.23299 24C10.095 24 10.855 23.57 11.323 22.919C11.6969 23.228 12.1509 23.4243 12.6321 23.485C13.1134 23.5456 13.6019 23.4682 14.0408 23.2617C14.4797 23.0551 14.8508 22.728 15.1107 22.3185C15.3707 21.909 15.5088 21.434 15.509 20.949C15.509 20.382 15.316 19.85 15.005 19.429C15.1803 18.9202 15.1905 18.3691 15.0344 17.8542C14.8782 17.3392 14.5636 16.8866 14.1352 16.5609C13.7069 16.2352 13.1867 16.0529 12.6487 16.0399C12.1108 16.027 11.5825 16.1842 11.139 16.489C10.8976 16.2077 10.5984 15.9818 10.2616 15.8268C9.9249 15.6718 9.55867 15.5904 9.18799 15.59Z" fill="#13BEF9"/>
</svg>
