<svg width="24" height="24" viewBox="0 0 24 25" fill="none" xmlns="http://www.w3.org/2000/svg">
<g clip-path="url(#clip0_5_1369)">
<path d="M23.5594 15.2228C23.5457 15.1809 23.5268 15.1409 23.5031 15.1037C23.3641 14.8405 23.0263 14.7619 22.4957 14.8716C20.8424 15.2127 20.2022 15.0028 19.9701 14.8525C21.3121 12.8043 22.4151 10.3305 23.0112 8.0228C23.2826 6.9721 23.8094 4.4991 23.1334 3.2912C23.0902 3.20853 23.0397 3.12988 22.9825 3.0562C21.6931 1.4086 19.8007 0.524801 17.5099 0.500501C16.0152 0.484701 14.7394 0.846601 14.3938 0.979901C14.2226 0.947953 14.0506 0.920742 13.8779 0.898301C13.445 0.819911 13.0064 0.777168 12.5665 0.770501C11.3843 0.752101 10.3627 1.0347 9.51669 1.6111C8.65939 1.29 4.72789 -0.0338985 2.29479 1.6899C0.935892 2.6526 0.308592 4.3733 0.430192 6.8043C0.471092 7.6223 0.937092 10.1383 1.67249 12.5479C2.13229 14.0544 2.61119 15.2498 3.10589 16.1299C3.65889 17.1241 4.23179 17.7232 4.82019 17.9194C5.26759 18.0685 5.95289 18.0635 6.67829 17.1915C7.47949 16.228 8.26859 15.3657 8.62289 14.9846C9.05799 15.2201 9.52929 15.3471 10.0129 15.3618C10.013 15.3632 10.0131 15.3645 10.0133 15.3659C9.92909 15.4662 9.84667 15.568 9.76609 15.6713C9.42719 16.1015 9.35669 16.191 8.26589 16.4156C7.95569 16.4796 7.13149 16.6495 7.11949 17.2271C7.11699 17.3495 7.15239 17.458 7.21139 17.5539C7.43829 17.977 8.13299 18.1636 8.22639 18.187C9.56089 18.5205 10.7308 18.279 11.5978 17.5083C11.5808 19.7393 11.6753 21.9257 11.9432 22.5957C12.1644 23.1486 12.705 24.5002 14.4124 24.5C14.6629 24.5 14.9387 24.4709 15.242 24.4059C17.0239 24.0238 17.7977 23.2363 18.097 21.5C18.2473 20.6293 18.4986 18.6247 18.6358 17.3988C18.6527 17.3285 18.6715 17.2781 18.6928 17.2626C18.6935 17.2621 18.7625 17.2155 19.12 17.2933C19.1346 17.2965 19.1494 17.2987 19.1643 17.3001L19.4182 17.3224L19.4331 17.3234C20.2799 17.3618 21.3445 17.1808 21.9643 16.8926C22.6081 16.5938 23.77 15.8603 23.5594 15.2228ZM2.37099 12.3765C1.62749 9.9407 1.19309 7.4914 1.15869 6.8046C1.05009 4.6332 1.57579 3.1217 2.72099 2.3119C4.55769 1.0133 7.56079 1.7711 8.82899 2.1819C8.82579 2.1851 8.82239 2.188 8.81919 2.1913C6.79539 4.2353 6.84339 7.7273 6.84839 7.9408C6.84819 8.0231 6.85499 8.1397 6.86459 8.3001C6.89939 8.8874 6.96419 9.9805 6.79109 11.2185C6.63019 12.3689 6.98479 13.4949 7.76389 14.3077C7.84449 14.3918 7.92869 14.4708 8.01569 14.5451C7.66889 14.9165 6.91529 15.7377 6.11319 16.7027C5.54549 17.3852 5.15349 17.2544 5.02459 17.2114C4.63269 17.0807 4.21159 16.6243 3.78649 15.8891C3.30689 15.0501 2.82299 13.8574 2.37099 12.3765ZM8.37819 17.4636C8.20709 17.4208 8.05109 17.3504 7.94599 17.2864C8.03489 17.247 8.18339 17.1962 8.42929 17.1455C9.71259 16.8814 9.91079 16.6949 10.3436 16.1453C10.4428 16.0193 10.5552 15.8766 10.7109 15.7027C10.7444 15.6651 10.7695 15.6209 10.7846 15.5729C10.9554 15.4216 11.057 15.463 11.2215 15.5312C11.3775 15.5958 11.5293 15.7912 11.591 16.0064C11.6201 16.108 11.6529 16.3009 11.5458 16.4508C10.6415 17.7166 9.32419 17.7002 8.37819 17.4636ZM10.4722 13.4756L10.4197 13.6166C10.2867 13.9732 10.163 14.3047 10.0863 14.6196C9.41889 14.6175 8.76949 14.3324 8.27579 13.8172C7.64789 13.1621 7.36269 12.2508 7.49329 11.3168C7.67609 10.0089 7.60859 8.87 7.57229 8.2582C7.56729 8.1725 7.56279 8.0975 7.56009 8.0383C7.85579 7.7762 9.22599 7.0421 10.203 7.2659C10.6489 7.3681 10.9206 7.6716 11.0335 8.1939C11.6181 10.8977 11.1109 12.0246 10.7033 12.9302C10.6193 13.1168 10.54 13.2931 10.4722 13.4756ZM17.8359 18.0481C17.819 18.2249 17.8001 18.4241 17.7741 18.644L17.6281 19.0823C17.6165 19.117 17.6104 19.1534 17.6099 19.19C17.604 19.6647 17.5559 19.8389 17.4949 20.0593C17.4315 20.2885 17.3596 20.5484 17.3155 21.1168C17.2055 22.5311 16.4373 23.3435 14.8983 23.6733C13.3828 23.9984 13.114 23.1765 12.8771 22.4516C12.8528 22.3756 12.8272 22.3001 12.8002 22.225C12.5848 21.6392 12.6091 20.8131 12.6428 19.6699C12.6593 19.1087 12.6179 17.7686 12.3126 17.0237C12.317 16.7305 12.3232 16.4328 12.3316 16.1319C12.3326 16.0938 12.3274 16.0558 12.3163 16.0193C12.3066 15.949 12.292 15.8795 12.2724 15.8113C12.1498 15.383 11.8511 15.0247 11.4927 14.8762C11.3503 14.8172 11.0889 14.709 10.7749 14.7893C10.8419 14.5133 10.958 14.2018 11.0839 13.8644L11.1368 13.7224C11.1963 13.5624 11.2708 13.3967 11.3498 13.2212C11.7763 12.2736 12.3604 10.9759 11.7264 8.044C11.489 6.9459 10.696 6.4097 9.49399 6.5342C8.77329 6.6088 8.11409 6.8996 7.78519 7.0663C7.71925 7.09972 7.65397 7.13443 7.58939 7.1704C7.68119 6.064 8.02799 3.9963 9.32509 2.6881C9.42144 2.59101 9.52267 2.4989 9.62839 2.4121C9.68088 2.40187 9.73036 2.37985 9.77309 2.3477C10.5255 1.7771 11.4676 1.4971 12.5751 1.5152C12.9842 1.5219 13.3768 1.5491 13.7493 1.5962C15.6883 1.9506 16.9932 3.043 17.7852 3.9789C18.5995 4.9412 19.0404 5.9104 19.2164 6.4332C17.8932 6.2986 16.993 6.56 16.5367 7.2122C15.5441 8.6311 17.0797 11.3851 17.8178 12.7086C17.9531 12.9512 18.07 13.1608 18.1067 13.2499C18.347 13.8324 18.6582 14.2212 18.8854 14.5051C18.955 14.5921 19.0226 14.6765 19.0739 14.7501C18.6731 14.8656 17.9531 15.1326 18.0187 16.4671C18.0064 16.6234 17.9764 16.914 17.9353 17.2819C17.8892 17.4896 17.8651 17.7422 17.8359 18.0481ZM18.7264 16.427C18.6859 15.5954 18.9955 15.5085 19.3231 15.4165C19.3684 15.4041 19.4134 15.3905 19.4581 15.3759C19.5004 15.4133 19.5452 15.4478 19.5923 15.4789C20.1626 15.8554 21.1746 15.9002 22.5991 15.6133C22.3975 15.7902 22.0802 16.0127 21.6458 16.2144C21.236 16.4047 20.5501 16.5474 19.8985 16.578C19.1788 16.6116 18.8126 16.4973 18.7264 16.427ZM19.2959 7.1558C19.29 7.5066 19.2417 7.825 19.1905 8.1575C19.1355 8.5151 19.0785 8.8849 19.0641 9.3337C19.0499 9.7705 19.1045 10.2246 19.1573 10.6638C19.2639 11.5508 19.3733 12.4641 18.9498 13.3652C18.8795 13.2406 18.8168 13.1118 18.7622 12.9796C18.7095 12.852 18.5953 12.647 18.4371 12.3634C17.8215 11.2593 16.3797 8.6738 17.1178 7.6188C17.4973 7.0761 18.4586 7.0527 19.2959 7.1558ZM19.5243 14.1695C19.4961 14.1335 19.4676 14.0977 19.439 14.0621L19.4035 14.0177C20.1297 12.8182 19.9877 11.6315 19.8613 10.5792C19.8094 10.1474 19.7604 9.7396 19.7728 9.3566C19.7857 8.9505 19.8394 8.6023 19.8913 8.2655C19.9552 7.8505 20.0201 7.4212 20.0022 6.915C20.0156 6.8619 20.021 6.7992 20.014 6.7248C19.9683 6.2393 19.4141 4.7868 18.2846 3.4718C17.677 2.7645 16.795 1.9746 15.5957 1.4323C16.1208 1.3257 16.8285 1.2288 17.6201 1.2464C19.6716 1.292 21.2947 2.0599 22.4443 3.5288C22.4687 3.56069 22.491 3.59416 22.511 3.629C23.2341 4.9846 22.2348 9.9041 19.5243 14.1695ZM10.7077 8.0533C10.6827 8.2327 10.3988 8.4758 10.0866 8.4758C10.0595 8.47582 10.0325 8.47395 10.0057 8.4702C9.81839 8.4442 9.62919 8.3262 9.49979 8.1546C9.45399 8.0941 9.37949 7.9766 9.39429 7.8702C9.39979 7.8301 9.42039 7.7717 9.48679 7.7214C9.60499 7.632 9.83859 7.5988 10.0964 7.6347C10.4127 7.6788 10.739 7.8285 10.7077 8.0533ZM18.6382 7.6419C18.6493 7.7211 18.5892 7.8429 18.4851 7.9521C18.4168 8.0238 18.2731 8.1482 18.0772 8.1753C18.0523 8.17876 18.0273 8.18049 18.0022 8.1805C17.7087 8.1805 17.4608 7.9461 17.4415 7.8088C17.4175 7.6323 17.7056 7.4982 18.0026 7.4568C18.2996 7.4154 18.6137 7.4656 18.6382 7.6419Z" fill="#4169E1"/>
</g>
<defs>
<clipPath id="clip0_5_1369">
<rect width="24" height="24" fill="white" transform="translate(0 0.5)"/>
</clipPath>
</defs>
</svg>
