<svg width="24" height="24" viewBox="0 0 24 25" fill="none" xmlns="http://www.w3.org/2000/svg">
<g clip-path="url(#clip0_5_1381)">
<path d="M10.15 8.92005C9.77462 8.7729 9.3729 8.70482 8.97 8.72005C8.60655 8.71246 8.24293 8.71913 7.88 8.74005V12.1L8.27 12.12H8.8C9.19 12.12 9.58 12.06 9.95 11.94C10.27 11.85 10.55 11.66 10.77 11.41C10.98 11.16 11.08 10.82 11.08 10.38C11.1026 10.069 11.0243 9.75904 10.8568 9.49604C10.6892 9.23304 10.4414 9.03106 10.15 8.92005ZM19.75 0.800049H4.25C3.12283 0.800049 2.04183 1.24782 1.2448 2.04485C0.447767 2.84187 0 3.92288 0 5.05005L0 19.9501C0 22.3001 1.9 24.2001 4.25 24.2001H19.75C22.1 24.2001 24 22.3001 24 19.9501V5.05005C24 2.70005 22.1 0.800049 19.75 0.800049ZM12.66 12.45C12.26 13.01 11.7 13.43 11.05 13.67C10.37 13.92 9.62 14.01 8.8 14.01L8.3 14L7.87 13.99V17.2001C7.87284 17.2166 7.87217 17.2335 7.86805 17.2498C7.86393 17.2661 7.85645 17.2813 7.84609 17.2945C7.83572 17.3077 7.8227 17.3185 7.80787 17.3264C7.79305 17.3342 7.77674 17.3389 7.76 17.34H5.82C5.74 17.34 5.7 17.3 5.7 17.21V6.92005C5.7 6.85005 5.73 6.81005 5.8 6.81005L6.36 6.80005L7.12 6.78005L7.99 6.76005L8.9 6.75005C9.72 6.75005 10.4 6.85005 10.96 7.06005C11.46 7.23005 11.92 7.51005 12.3 7.88005C12.62 8.20005 12.87 8.59005 13.03 9.02005C13.18 9.44005 13.26 9.87005 13.26 10.32C13.26 11.18 13.06 11.89 12.66 12.45ZM19.48 9.30005V11.25C19.48 11.33 19.43 11.36 19.32 11.36C18.6602 11.3361 18.0036 11.4626 17.4 11.73C17.21 11.82 17.03 11.94 16.89 12.1V17.2001C16.89 17.3001 16.85 17.34 16.76 17.34H14.79C14.7716 17.3429 14.7528 17.342 14.7347 17.3375C14.7167 17.3329 14.6997 17.3248 14.6848 17.3137C14.6699 17.3025 14.6574 17.2885 14.648 17.2724C14.6386 17.2563 14.6324 17.2385 14.63 17.22V11.64L14.62 10.89L14.6 10.11C14.6 9.88005 14.58 9.66005 14.56 9.43005C14.5566 9.40637 14.5618 9.38225 14.5746 9.36207C14.5875 9.34189 14.6071 9.32698 14.63 9.32005H16.41C16.51 9.32005 16.59 9.39005 16.61 9.48005C16.7004 9.77821 16.7442 10.0885 16.74 10.4C17.04 10.05 17.41 9.76005 17.82 9.54005C18.2848 9.28184 18.8083 9.14754 19.34 9.15005C19.41 9.14005 19.47 9.19005 19.48 9.26005V9.30005Z" fill="#9999FF"/>
</g>
<defs>
<clipPath id="clip0_5_1381">
<rect width="24" height="24" fill="white" transform="translate(0 0.5)"/>
</clipPath>
</defs>
</svg>
