<svg width="24" height="24" viewBox="0 0 24 24" fill="none" xmlns="http://www.w3.org/2000/svg">
<g clip-path="url(#clip0_50_112)">
<path d="M14.2499 0.18L15.1499 0.38L15.8799 0.64L16.4699 0.94L16.9199 1.26L17.2599 1.6L17.5099 1.94L17.6699 2.27L17.7699 2.57L17.8099 2.83L17.8299 3.03L17.8199 3.16V8.5L17.7699 9.13L17.6399 9.68L17.4299 10.14L17.1699 10.52L16.8699 10.83L16.5399 11.08L16.1899 11.27L15.8399 11.41L15.5099 11.51L15.2099 11.58L14.9499 11.62L14.7399 11.64H8.76994L8.07994 11.69L7.48994 11.83L6.98994 12.05L6.57994 12.32L6.24994 12.64L5.97994 12.99L5.77994 13.35L5.62994 13.72L5.52994 14.07L5.45994 14.39L5.41994 14.66L5.39994 14.87V17.93H3.16994L2.95994 17.9L2.67994 17.83L2.35994 17.71L2.00994 17.53L1.64994 17.27L1.28994 16.91L0.939941 16.45L0.619941 15.86L0.339941 15.13L0.129941 14.25L-0.0100586 13.2L-0.0600586 11.97L-5.85951e-05 10.75L0.159941 9.71L0.399941 8.84L0.719941 8.13L1.07994 7.56L1.47994 7.12L1.89994 6.79L2.31994 6.55L2.71994 6.39L3.07994 6.29L3.39994 6.24L3.63994 6.23H3.79994L3.85994 6.24H12.0199V5.41H6.17994L6.16994 2.66L6.14994 2.29L6.19994 1.95L6.30994 1.64L6.47994 1.36L6.72994 1.1L7.03994 0.87L7.41994 0.67L7.85994 0.49L8.36994 0.34L8.94994 0.22L9.58994 0.12L10.2999 0.06L11.0699 0.02L11.9099 0L13.1799 0.05L14.2499 0.18ZM7.94994 2.16L7.71994 2.49L7.63994 2.9L7.71994 3.31L7.94994 3.65L8.27994 3.87L8.68994 3.96L9.09994 3.87L9.42994 3.65L9.65994 3.31L9.73994 2.9L9.65994 2.49L9.42994 2.16L9.09994 1.94L8.68994 1.85L8.27994 1.94L7.94994 2.16ZM21.0399 6.11L21.3199 6.17L21.6399 6.29L21.9899 6.47L22.3499 6.74L22.7099 7.09L23.0599 7.56L23.3799 8.15L23.6599 8.88L23.8699 9.76L24.0099 10.8L24.0599 12.03L23.9999 13.26L23.8399 14.3L23.5999 15.16L23.2799 15.87L22.9199 16.44L22.5199 16.89L22.0999 17.22L21.6799 17.46L21.2799 17.62L20.9199 17.71L20.5999 17.76L20.3599 17.78L20.1999 17.77H11.9799V18.59H17.8199L17.8299 21.35L17.8499 21.71L17.7999 22.05L17.6899 22.36L17.5199 22.65L17.2699 22.9L16.9599 23.14L16.5799 23.34L16.1399 23.51L15.6299 23.66L15.0499 23.79L14.4099 23.88L13.6999 23.95L12.9299 23.99L12.0899 24L10.8199 23.96L9.74994 23.82L8.84994 23.62L8.11994 23.37L7.52994 23.07L7.07994 22.74L6.73994 22.4L6.48994 22.06L6.32994 21.73L6.22994 21.43L6.18994 21.18L6.16994 20.98L6.17994 20.85V15.51L6.22994 14.87L6.35994 14.33L6.56994 13.87L6.82994 13.49L7.12994 13.17L7.45994 12.93L7.80994 12.73L8.15994 12.59L8.48994 12.49L8.78994 12.43L9.04994 12.39L9.25994 12.37L9.38994 12.36H15.2299L15.9199 12.31L16.5099 12.17L17.0099 11.96L17.4199 11.68L17.7499 11.36L18.0199 11.01L18.2199 10.65L18.3699 10.29L18.4699 9.94L18.5399 9.62L18.5799 9.34L18.5999 9.13V6.07H20.6899L20.8299 6.08L21.0399 6.11ZM14.5699 20.36L14.3399 20.69L14.2599 21.1L14.3399 21.51L14.5699 21.84L14.8999 22.07L15.3099 22.15L15.7199 22.07L16.0499 21.84L16.2799 21.51L16.3599 21.1L16.2799 20.69L16.0499 20.36L15.7199 20.13L15.3099 20.05L14.8999 20.13L14.5699 20.36Z" fill="#3776AB"/>
</g>
<defs>
<clipPath id="clip0_50_112">
<rect width="24" height="24" fill="white"/>
</clipPath>
</defs>
</svg>
