<svg width="24" height="24" viewBox="0 0 24 24" fill="none" xmlns="http://www.w3.org/2000/svg">
<path d="M19.8955 10.8961L19.7229 10.5933C19.7297 8.41867 18.7207 7.53227 17.5441 6.85847C17.9001 6.76467 18.2678 6.68737 18.3686 6.24027C18.9804 6.08367 19.1083 5.80047 19.1697 5.50047C19.3297 5.39387 19.8652 5.09437 19.8091 4.57937C20.1089 4.37247 20.276 4.10687 20.191 3.73067C20.5132 3.37917 20.598 3.08877 20.4612 2.82107C20.848 2.34057 20.6764 2.09157 20.5112 1.83937C20.8009 1.31397 20.5453 0.750666 19.7354 0.844966C19.4133 0.371666 18.711 0.479066 18.6024 0.481266C18.4809 0.329366 18.3205 0.199166 17.8269 0.262266C17.5072 -0.0228339 17.1498 0.0258662 16.7811 0.165866C16.3433 -0.174434 16.0536 0.0983662 15.7227 0.201466C15.1927 0.0308662 15.0714 0.264566 14.811 0.359766C14.2329 0.239466 14.0572 0.501366 13.7801 0.777966L13.4577 0.771666C12.5858 1.27777 12.1527 2.30827 11.9992 2.83807C11.8456 2.30817 11.4134 1.27767 10.5417 0.771666L10.2194 0.777966C9.94197 0.501366 9.76627 0.239366 9.18827 0.359666C8.92787 0.264566 8.80697 0.0308662 8.27657 0.201466C8.05937 0.133766 7.85957 -0.00693384 7.62437 0.000266156C7.50127 0.00386616 7.36897 0.0489662 7.21847 0.165966C6.84967 0.0258662 6.49227 -0.0227339 6.17257 0.262366C5.67897 0.199266 5.51857 0.329466 5.39697 0.481366C5.28867 0.479066 4.58617 0.371666 4.26397 0.844966C3.45437 0.750666 3.19847 1.31407 3.48837 1.83937C3.32307 2.09147 3.15177 2.34067 3.53837 2.82127C3.40167 3.08897 3.48647 3.37937 3.80867 3.73087C3.72367 4.10717 3.89087 4.37267 4.19057 4.57957C4.13447 5.09457 4.67007 5.39397 4.82997 5.50067C4.89137 5.80077 5.01937 6.08387 5.63107 6.24047C5.73187 6.68767 6.09957 6.76487 6.45557 6.85877C5.27897 7.53247 4.26997 8.41877 4.27677 10.5936L4.10437 10.8964C2.75527 11.7046 1.54147 14.302 3.43957 16.4131C3.56357 17.074 3.77147 17.5486 3.95667 18.074C4.23357 20.191 6.04077 21.1822 6.51747 21.2995C7.21587 21.8235 7.95977 22.3207 8.96647 22.6691C9.91547 23.6331 10.9435 24.0005 11.9772 23.9999C11.9924 23.9999 12.0078 24.0001 12.0229 23.9999C13.0566 24.0005 14.0847 23.6331 15.0336 22.6691C16.0403 22.3208 16.7842 21.8235 17.4827 21.2995C17.9593 21.1822 19.7665 20.191 20.0434 18.074C20.2285 17.5487 20.4365 17.074 20.5604 16.4131C22.4585 14.3018 21.2447 11.7042 19.8955 10.8961ZM18.8569 10.5246C18.7865 11.4005 14.2215 7.47417 15.0097 7.34377C17.1488 6.98797 18.9288 8.23977 18.8569 10.5246ZM16.8414 14.8895C15.6933 15.6304 14.0389 15.1521 13.1461 13.8214C12.2533 12.4908 12.4603 10.8113 13.6084 10.0705C14.7565 9.32957 16.4109 9.80777 17.3037 11.1385C18.1964 12.4692 17.9895 14.1486 16.8414 14.8895ZM13.6591 1.37207C13.6987 1.56877 13.7434 1.69307 13.7945 1.72977C14.0482 1.45777 14.2556 1.17917 14.5823 0.917466C14.5834 1.07117 14.5047 1.23797 14.6992 1.35997C14.8744 1.12437 15.1111 0.914066 15.4255 0.735566C15.2741 0.996666 15.3995 1.07597 15.4809 1.18417C15.7209 0.978266 15.949 0.769766 16.3918 0.608266C16.2708 0.755666 16.1016 0.899666 16.281 1.06897C16.5283 0.914566 16.777 0.760366 17.3643 0.650666C17.232 0.798166 16.9584 0.945666 17.1242 1.09327C17.4346 0.974666 17.7781 0.888566 18.1582 0.838666C17.9762 0.988266 17.8245 1.13497 17.9736 1.25087C18.3059 1.14867 18.7635 1.01107 19.2108 1.12967L18.9276 1.41457C18.8962 1.45277 19.5899 1.44427 20.0478 1.45097C19.8808 1.68307 19.7103 1.90717 19.6108 2.30577C19.6562 2.35167 19.8831 2.32617 20.097 2.30577C19.8776 2.76757 19.4966 2.88407 19.4077 3.08177C19.5417 3.18327 19.7277 3.15677 19.9309 3.08777C19.7729 3.41317 19.4417 3.63617 19.18 3.90007C19.2462 3.94707 19.3618 3.97507 19.6355 3.94257C19.3937 4.19957 19.1016 4.43457 18.7553 4.64577C18.8167 4.71657 19.0275 4.71387 19.2231 4.71847C18.9095 5.02537 18.5058 5.18447 18.1276 5.38527C18.3161 5.51407 18.451 5.48407 18.5954 5.48227C18.3278 5.70207 17.8729 5.81647 17.4506 5.94907C17.5309 6.07397 17.6113 6.10797 17.783 6.14307C17.336 6.39037 16.6957 6.27737 16.5151 6.40377C16.5586 6.52807 16.6816 6.60907 16.829 6.67657C16.1093 6.71837 14.1411 6.65037 13.7638 5.16097C14.5005 4.35157 15.8451 3.40167 18.1578 2.22697C16.3584 2.82917 14.7349 3.63197 13.3761 4.73657C11.7783 3.99297 12.8796 2.11687 13.6591 1.37207ZM12.0465 6.74387C13.1794 6.73157 14.5821 7.57637 14.5765 8.37247C14.5715 9.07517 13.5914 9.64397 12.0552 9.63317C10.5509 9.61547 9.53797 8.91837 9.54147 8.23747C9.54447 7.67717 10.7697 6.71117 12.0465 6.74387ZM6.28187 6.14327C6.45357 6.10817 6.53387 6.07407 6.61417 5.94927C6.19187 5.81657 5.73697 5.70227 5.46937 5.48247C5.61377 5.48427 5.74857 5.51427 5.93717 5.38547C5.55887 5.18467 5.15517 5.02557 4.84157 4.71867C5.03707 4.71387 5.24797 4.71667 5.30927 4.64587C4.96307 4.43457 4.67097 4.19957 4.42917 3.94257C4.70297 3.97507 4.81847 3.94707 4.88467 3.90007C4.62297 3.63607 4.29167 3.41307 4.13377 3.08777C4.33697 3.15677 4.52297 3.18317 4.65697 3.08177C4.56797 2.88407 4.18697 2.76757 3.96757 2.30577C4.18157 2.32617 4.40847 2.35167 4.45387 2.30577C4.35447 1.90727 4.18407 1.68317 4.01697 1.45107C4.47487 1.44437 5.16857 1.45287 5.13717 1.41467L4.85407 1.12977C5.30127 1.01117 5.75897 1.14877 6.09117 1.25107C6.24037 1.13517 6.08857 0.988466 5.90647 0.838766C6.28657 0.888766 6.63007 0.974866 6.94047 1.09347C7.10637 0.945866 6.83287 0.798366 6.70047 0.650866C7.28767 0.760566 7.53657 0.914766 7.78377 1.06917C7.96317 0.899766 7.79407 0.755866 7.67297 0.608466C8.11577 0.769966 8.34387 0.978466 8.58397 1.18437C8.66537 1.07617 8.79077 0.996866 8.63937 0.735766C8.95367 0.914266 9.19047 1.12457 9.36567 1.36017C9.56017 1.23817 9.48157 1.07137 9.48257 0.917566C9.80927 1.17937 10.0166 1.45797 10.2705 1.72997C10.3216 1.69337 10.3664 1.56897 10.4059 1.37227C11.1853 2.11707 12.2866 3.99307 10.689 4.73687C9.33007 3.63297 7.70727 2.83047 5.90897 2.22827C8.22047 3.40227 9.56457 4.35217 10.301 5.16107C9.92367 6.65057 7.95547 6.71857 7.23587 6.67677C7.38317 6.60917 7.50617 6.52827 7.54977 6.40397C7.36917 6.27757 6.72887 6.39057 6.28187 6.14327ZM9.09937 7.27667C9.88747 7.40707 5.32247 11.3334 5.25217 10.4576C5.18027 8.17297 6.96007 6.92087 9.09937 7.27667ZM4.25237 16.0334C3.14297 15.1545 2.78557 12.5805 4.84247 11.4237C6.08187 11.0964 5.26087 16.4747 4.25237 16.0334ZM8.51797 20.6323C7.89227 21.0042 6.37277 20.851 5.29277 19.3228C4.56447 18.0405 4.65827 16.7356 5.16977 16.3523C5.93457 15.8934 7.11617 16.5132 8.02567 17.5526C8.81797 18.4931 9.17927 20.1453 8.51797 20.6323ZM7.27647 15.0237C6.12837 14.2828 5.92137 12.6034 6.81417 11.2726C7.70697 9.94187 9.36137 9.46367 10.5094 10.2046C11.6575 10.9455 11.8645 12.6249 10.9717 13.9555C10.0791 15.2863 8.42457 15.7645 7.27647 15.0237ZM12.0713 23.2516C10.695 23.31 9.34547 22.1411 9.36317 21.7359C9.34257 21.1419 11.039 20.6781 12.1452 20.7053C13.2583 20.6574 14.752 21.0584 14.7549 21.5904C14.7733 22.107 13.4002 23.2742 12.0713 23.2516ZM14.8297 17.3938C14.8378 18.7837 13.6037 19.9163 12.0735 19.9237C10.5433 19.931 9.29617 18.8102 9.28807 17.4204V17.3939C9.28007 16.004 10.514 14.8713 12.0443 14.864C13.5745 14.8567 14.8216 15.9774 14.8296 17.3673C14.8298 17.3761 14.8298 17.3849 14.8297 17.3938ZM18.6847 19.3967C17.4987 21.0175 15.8931 21.0807 15.2951 20.6292C14.6696 20.0481 15.1471 18.2438 16.0045 17.2545C16.9857 16.1633 18.0347 15.4505 18.7654 16.0073C19.2573 16.4901 19.5459 18.3081 18.6847 19.3967ZM19.7571 15.9666C18.7485 16.4079 17.9273 11.0294 19.167 11.3566C21.2238 12.5135 20.8664 15.0876 19.7571 15.9666ZM19.7315 7.63867H20.03V7.10827H20.3286C20.4788 7.10827 20.5339 7.17067 20.5548 7.31347C20.57 7.42227 20.5661 7.55297 20.6025 7.63877H20.9009C20.8476 7.56247 20.8494 7.40297 20.8438 7.31747C20.8341 7.18017 20.7925 7.03787 20.6461 6.99987V6.99617C20.7963 6.93517 20.861 6.81547 20.861 6.65517C20.861 6.45037 20.7071 6.28137 20.4636 6.28137H19.7316L19.7315 7.63867ZM20.03 6.51317H20.3569C20.4902 6.51317 20.5623 6.57047 20.5623 6.70117C20.5623 6.83807 20.4902 6.89537 20.3569 6.89537H20.03V6.51317ZM18.9963 6.97647C18.9963 7.67737 19.5645 8.24587 20.2658 8.24587C20.9671 8.24587 21.5353 7.67747 21.5353 6.97647C21.5353 6.27517 20.967 5.70677 20.2658 5.70677C19.5645 5.70677 18.9963 6.27517 18.9963 6.97647ZM21.3238 6.97647C21.3238 7.56097 20.8501 8.03447 20.2658 8.03447C19.6815 8.03447 19.2078 7.56097 19.2078 6.97647C19.2078 6.39157 19.6815 5.91847 20.2658 5.91847C20.8501 5.91847 21.3238 6.39157 21.3238 6.97647Z" fill="#A22846"/>
</svg>
