<svg width="24" height="24" viewBox="0 0 24 22" fill="none" xmlns="http://www.w3.org/2000/svg">
<g clip-path="url(#clip0_50_118)">
<path d="M12 13.05C13.1321 13.05 14.05 12.1321 14.05 11C14.05 9.86777 13.1321 8.94995 12 8.94995C10.8678 8.94995 9.94995 9.86777 9.94995 11C9.94995 12.1321 10.8678 13.05 12 13.05Z" fill="#61DAFB"/>
<path d="M12 15.2C18.0751 15.2 23 13.3196 23 11C23 8.68045 18.0751 6.80005 12 6.80005C5.92487 6.80005 1 8.68045 1 11C1 13.3196 5.92487 15.2 12 15.2Z" stroke="#61DAFB"/>
<path d="M8.36272 13.1001C11.4003 18.3613 15.4912 21.6861 17.5 20.5263C19.5089 19.3665 18.6749 14.1613 15.6373 8.90006C12.5998 3.63884 8.50885 0.313981 6.50002 1.47378C4.49119 2.63358 5.32515 7.83884 8.36272 13.1001Z" stroke="#61DAFB"/>
<path d="M8.36272 8.90001C5.32515 14.1612 4.49119 19.3665 6.50002 20.5263C8.50885 21.6861 12.5998 18.3612 15.6373 13.1C18.6749 7.83879 19.5089 2.63353 17.5 1.47373C15.4912 0.313932 11.4003 3.63879 8.36272 8.90001Z" stroke="#61DAFB"/>
</g>
<defs>
<clipPath id="clip0_50_118">
<rect width="23" height="20.4635" fill="white" transform="translate(0.5 0.768311)"/>
</clipPath>
</defs>
</svg>
