<svg width="24" height="24" viewBox="0 0 24 25" fill="none" xmlns="http://www.w3.org/2000/svg">
<g clip-path="url(#clip0_5_1367)">
<path d="M16.634 17.0041C17.504 16.9291 18.177 16.1641 18.134 15.2501C18.087 14.3361 17.338 13.6021 16.425 13.6021H16.364C15.9109 13.6183 15.4828 13.8137 15.1737 14.1454C14.8647 14.4772 14.7001 14.918 14.716 15.3711C14.746 15.8501 14.942 16.2401 15.21 16.5241C14.162 18.5621 12.589 20.0601 10.205 21.3191C8.60199 22.1571 6.90899 22.4731 5.26099 22.2491C3.88299 22.0541 2.80499 21.4391 2.14499 20.4501C1.15699 18.9511 1.06699 17.3341 1.88999 15.7161C2.48999 14.5461 3.38899 13.6931 3.98899 13.2731C3.80786 12.7709 3.6674 12.2549 3.56899 11.7301C-0.868014 14.9081 -0.416014 19.2521 0.931986 21.3051C1.93599 22.8031 3.98899 23.7611 6.23599 23.7611C6.83599 23.7611 7.46599 23.7171 8.07899 23.5671C11.976 22.8181 14.927 20.4811 16.62 17.0351L16.634 17.0041ZM21.982 13.2581C19.662 10.5301 16.244 9.03212 12.348 9.03212H11.838C11.585 8.47812 11.001 8.13312 10.34 8.13312H10.295C9.35199 8.13312 8.61699 8.94312 8.64799 9.88612C8.67799 10.7841 9.44199 11.5341 10.356 11.5341H10.43C10.7542 11.5216 11.0679 11.416 11.3337 11.23C11.5995 11.044 11.8062 10.7854 11.929 10.4851H12.484C14.793 10.4851 16.979 11.1591 18.972 12.4771C20.499 13.4821 21.594 14.8001 22.209 16.3741C22.747 17.6621 22.718 18.9211 22.164 19.9711C21.309 21.6181 19.87 22.4881 17.968 22.4881C16.769 22.4881 15.601 22.1131 15.001 21.8441C14.641 22.1421 14.041 22.6371 13.607 22.9371C14.925 23.5351 16.259 23.8801 17.547 23.8801C20.469 23.8801 22.641 22.2331 23.466 20.6441C24.364 18.8461 24.29 15.8201 21.996 13.2281L21.982 13.2581ZM6.48999 17.5421C6.51999 18.4411 7.28299 19.1901 8.19799 19.1901H8.25799C8.48317 19.185 8.70505 19.1349 8.91057 19.0428C9.11609 18.9506 9.30109 18.8183 9.45467 18.6535C9.60824 18.4887 9.72729 18.2949 9.8048 18.0834C9.88232 17.872 9.91672 17.6471 9.90599 17.4221C9.90599 16.5221 9.12699 15.7751 8.21299 15.7751H8.15299C8.09299 15.7751 8.00299 15.7751 7.92699 15.8041C6.68399 13.7061 6.15899 11.4571 6.35499 9.03212C6.47499 7.20412 7.07499 5.61512 8.15199 4.29712C9.05199 3.17312 10.745 2.61712 11.899 2.58912C15.135 2.52812 16.484 6.56012 16.588 8.16312L18.086 8.61312C17.741 3.69712 14.686 1.12012 11.764 1.12012C9.01999 1.12012 6.48999 3.11312 5.46999 6.03512C4.07699 9.93012 4.99099 13.6771 6.69999 16.6741C6.54999 16.8691 6.45999 17.2131 6.48999 17.5421Z" fill="#764ABC"/>
</g>
<defs>
<clipPath id="clip0_5_1367">
<rect width="24" height="24" fill="white" transform="translate(0 0.5)"/>
</clipPath>
</defs>
</svg>
