<svg width="24" height="24" viewBox="0 0 24 24" fill="none" xmlns="http://www.w3.org/2000/svg">
<path d="M12.0264 0L1.59473 5.9922V18.0078L12.0264 24L22.4053 18.0078V5.9922L12.0264 0ZM11.999 3.4844L19.4287 7.711V16.2891L11.999 20.5157L4.65143 16.334L4.57133 7.711L11.999 3.4844ZM12.0479 4.0742C11.0714 4.6369 10.096 5.2016 9.12023 5.7656V6.0195L11.7276 7.5429V8.0253C11.8631 7.9472 11.9892 7.8742 12.1299 7.7929L12.3858 7.9433V7.6074C13.2702 7.1006 14.1931 6.5662 14.9542 6.1269C14.9577 6.0037 14.9569 5.8735 14.9581 5.7539C13.9878 5.1943 13.0178 4.6342 12.0479 4.0742ZM8.33503 6.1387C7.36453 6.6917 6.40383 7.2615 5.44243 7.8301V11.2324C6.40743 11.7877 7.37113 12.3451 8.33503 12.9023L8.73733 12.6699V9.7539C9.59343 9.2594 10.4895 8.7413 11.2275 8.3144V7.8301L8.33503 6.1387ZM15.7783 6.2266L12.8857 7.8965V8.2344L15.5224 9.7754V12.8418C15.6078 12.8912 15.6929 12.9409 15.7783 12.9902L18.6709 11.3203V7.918L15.7783 6.2266ZM12.1299 8.3711C11.1663 8.9295 10.2018 9.4862 9.23733 10.043V13.4668C10.2023 14.0221 11.166 14.5795 12.1299 15.1367L15.0225 13.4648V10.0625L12.1299 8.3711ZM5.93263 12.0938C5.76993 12.19 5.60513 12.2827 5.44243 12.379V15.7813C6.40673 16.3384 7.37083 16.8958 8.33503 17.4532L8.73733 17.2208V14.3028C8.89983 14.2089 9.04593 14.1241 9.21003 14.0294C9.04713 13.9349 8.90533 13.8531 8.73733 13.756V13.248L8.33503 13.4805C7.50993 13.0034 6.64483 12.5045 5.93263 12.0938ZM18.1807 12.1797L15.7784 13.5684C15.6904 13.5175 15.6112 13.4712 15.5225 13.42V13.754L15.0303 14.0392L15.5225 14.3263V17.3927C15.6079 17.4421 15.693 17.4918 15.7784 17.5411L18.671 15.8692V12.4669L18.1807 12.1797ZM9.71193 14.3184C9.55383 14.4097 9.39543 14.5005 9.23733 14.5918V18.0156C10.201 18.5731 11.1655 19.1292 12.1299 19.6855L15.0225 18.0156V14.6133L14.5323 14.3262L12.13 15.7149C11.2993 15.2345 10.4287 14.732 9.71193 14.3184Z" fill="#52B0E7"/>
</svg>
