<svg width="24" height="24" viewBox="0 0 24 25" fill="none" xmlns="http://www.w3.org/2000/svg">
<g clip-path="url(#clip0_5_1403)">
<path d="M11.318 13.045H7.91001V11.136H11.32V13.046L11.318 13.045ZM14.728 0.5V6.5H20.728L14.728 0.5ZM16.091 11.136H12.681V13.046H16.091V11.136ZM16.091 14.409H12.681V16.319H16.091V14.409ZM20.727 7V22.864C20.727 23.768 19.995 24.5 19.091 24.5H4.90901C4.69417 24.5 4.48143 24.4577 4.28294 24.3755C4.08445 24.2933 3.9041 24.1727 3.75218 24.0208C3.44537 23.714 3.27301 23.2979 3.27301 22.864V2.136C3.27301 1.232 4.00501 0.5 4.90901 0.5H14.227V7H20.727ZM17.454 9.773H6.54501V17.682H17.455V9.772L17.454 9.773ZM11.318 14.409H7.91001V16.319H11.32V14.409H11.318Z" fill="#34A853"/>
</g>
<defs>
<clipPath id="clip0_5_1403">
<rect width="24" height="24" fill="white" transform="translate(0 0.5)"/>
</clipPath>
</defs>
</svg>
