<svg width="24" height="24" viewBox="0 0 24 24" fill="none" xmlns="http://www.w3.org/2000/svg">
<path d="M15.725 0L14.005 1.277L20.395 9.865L22.111 8.588L15.725 0ZM11.785 3.418L10.416 5.062L18.641 11.912L20.01 10.268L11.785 3.418ZM8.63502 7.883L7.73001 9.823L17.432 14.34L18.336 12.4L8.63502 7.883ZM6.78501 12.743L6.34501 14.836L16.818 17.037L17.258 14.945L6.78501 12.742V12.743ZM1.89001 15.47V24H21.08V15.47H18.947V21.867H4.02101V15.471L1.89001 15.47ZM6.15501 17.603V19.733H16.815V17.603H6.15401H6.15501Z" fill="#F58025"/>
</svg>
