<svg width="24" height="24" viewBox="0 0 24 24" fill="none" xmlns="http://www.w3.org/2000/svg">
<g clip-path="url(#clip0_50_131)">
<path d="M16.71 0.243092L16.59 2.95309C16.5885 2.98737 16.5969 3.02135 16.6141 3.05103C16.6313 3.08071 16.6567 3.10486 16.6871 3.12062C16.7176 3.13638 16.752 3.14311 16.7861 3.14C16.8203 3.1369 16.8529 3.12409 16.88 3.10309L17.94 2.30309L18.84 3.00309C18.8664 3.02081 18.8971 3.03121 18.9288 3.03323C18.9606 3.03525 18.9923 3.02882 19.0208 3.01459C19.0492 3.00036 19.0734 2.97885 19.0908 2.95223C19.1083 2.92562 19.1183 2.89486 19.12 2.86309L19.02 0.103092L20.35 0.0030918C20.5141 -0.00773557 20.6787 0.0152847 20.8335 0.0707234C20.9884 0.126162 21.1301 0.212836 21.2501 0.325364C21.37 0.437892 21.4655 0.573872 21.5307 0.724863C21.5959 0.875854 21.6294 1.03863 21.629 1.20309V22.7991C21.6292 22.9619 21.5963 23.123 21.5323 23.2726C21.4683 23.4223 21.3745 23.5573 21.2566 23.6696C21.1387 23.7818 20.9993 23.8689 20.8467 23.9256C20.6941 23.9822 20.5316 24.0072 20.369 23.9991L4.27301 23.2791C3.97029 23.2666 3.68349 23.1401 3.47018 22.925C3.25687 22.7098 3.13285 22.4219 3.12301 22.1191L2.37301 2.32209C2.36354 2.16445 2.38529 2.00648 2.437 1.85726C2.48871 1.70803 2.56937 1.57048 2.67435 1.4525C2.77933 1.33451 2.90657 1.23841 3.04877 1.1697C3.19097 1.10099 3.34533 1.06102 3.50301 1.05209L16.7 0.222092L16.71 0.243092ZM13.64 9.30009C13.64 9.77009 16.8 9.54009 17.23 9.22009C17.23 6.02009 15.51 4.33009 12.371 4.33009C9.22101 4.33009 7.47201 6.05009 7.47201 8.62009C7.47201 13.0701 13.471 13.1501 13.471 15.5791C13.471 16.2791 13.151 16.6791 12.421 16.6791C11.461 16.6791 11.071 16.1891 11.121 14.5191C11.121 14.1591 7.47201 14.0391 7.35201 14.5191C7.08201 18.5491 9.58201 19.7191 12.451 19.7191C15.241 19.7191 17.42 18.2291 17.42 15.5391C17.42 10.7691 11.321 10.8991 11.321 8.54009C11.321 7.57009 12.041 7.44009 12.451 7.44009C12.901 7.44009 13.701 7.51009 13.641 9.31009L13.64 9.30009Z" fill="#FF4785"/>
</g>
<defs>
<clipPath id="clip0_50_131">
<rect width="24" height="24" fill="white"/>
</clipPath>
</defs>
</svg>
