<svg width="24" height="24" viewBox="0 0 24 25" fill="none" xmlns="http://www.w3.org/2000/svg">
<g clip-path="url(#clip0_5_1371)">
<path d="M12.001 5.30005C8.80101 5.30005 6.80101 6.90005 6.00101 10.1C7.20101 8.50005 8.60101 7.90005 10.201 8.30005C11.114 8.52805 11.766 9.19005 12.489 9.92405C13.666 11.118 15.027 12.5 18.001 12.5C21.201 12.5 23.201 10.9 24.001 7.70005C22.801 9.30005 21.401 9.90005 19.801 9.50005C18.888 9.27205 18.236 8.61005 17.513 7.87605C16.337 6.68205 14.976 5.30005 12.001 5.30005ZM6.00101 12.5C2.80101 12.5 0.801007 14.1 0.00100708 17.3C1.20101 15.7 2.60101 15.1 4.20101 15.5C5.11401 15.728 5.76601 16.39 6.48901 17.124C7.66601 18.318 9.02701 19.7 12.001 19.7C15.201 19.7 17.201 18.1 18.001 14.9C16.801 16.5 15.401 17.1 13.801 16.7C12.888 16.472 12.236 15.81 11.513 15.076C10.337 13.882 8.97601 12.5 6.00101 12.5Z" fill="#06B6D4"/>
</g>
<defs>
<clipPath id="clip0_5_1371">
<rect width="24" height="24" fill="white" transform="translate(0 0.5)"/>
</clipPath>
</defs>
</svg>
