<svg width="24" height="24" viewBox="0 0 24 24" fill="none" xmlns="http://www.w3.org/2000/svg">
<g clip-path="url(#clip0_50_140)">
<path d="M21.147 0H2.853C2.09691 0.00184833 1.37231 0.303025 0.837666 0.837666C0.303025 1.37231 0.00184833 2.09691 0 2.853L0 21.147C0.00184833 21.9031 0.303025 22.6277 0.837666 23.1623C1.37231 23.697 2.09691 23.9982 2.853 24H21.147C21.9031 23.9982 22.6277 23.697 23.1623 23.1623C23.697 22.6277 23.9982 21.9031 24 21.147V2.853C23.9982 2.09691 23.697 1.37231 23.1623 0.837666C22.6277 0.303025 21.9031 0.00184833 21.147 0ZM10.34 17.287C10.34 17.5398 10.2396 17.7822 10.0609 17.9609C9.88215 18.1396 9.63975 18.24 9.387 18.24H5.387C5.13416 18.24 4.89165 18.1396 4.71277 17.9609C4.53389 17.7822 4.43327 17.5398 4.433 17.287V5.38C4.433 5.25477 4.45768 5.13076 4.50564 5.01507C4.55359 4.89938 4.62388 4.79428 4.71248 4.70577C4.80108 4.61727 4.90626 4.54709 5.022 4.49926C5.13773 4.45142 5.26177 4.42687 5.387 4.427H9.387C9.63967 4.42726 9.88192 4.52775 10.0606 4.70642C10.2392 4.88508 10.3397 5.12733 10.34 5.38V17.287ZM19.573 11.82C19.5734 11.945 19.549 12.0688 19.5012 12.1843C19.4533 12.2997 19.3831 12.4046 19.2944 12.4927C19.2057 12.5808 19.1005 12.6504 18.9847 12.6975C18.8689 12.7446 18.745 12.7682 18.62 12.767H14.62C14.4951 12.7678 14.3713 12.7439 14.2558 12.6966C14.1402 12.6494 14.0351 12.5798 13.9465 12.4918C13.8579 12.4037 13.7876 12.2991 13.7397 12.1838C13.6917 12.0685 13.667 11.9449 13.667 11.82V5.38C13.667 5.12725 13.7674 4.88485 13.9461 4.70613C14.1248 4.5274 14.3672 4.427 14.62 4.427H18.62C18.8727 4.42726 19.1149 4.52775 19.2936 4.70642C19.4722 4.88508 19.5727 5.12733 19.573 5.38V11.82Z" fill="#0052CC"/>
</g>
<defs>
<clipPath id="clip0_50_140">
<rect width="24" height="24" fill="white"/>
</clipPath>
</defs>
</svg>
